<svg width="18" height="18" viewBox="0 0 18 18" fill="none" xmlns="http://www.w3.org/2000/svg">
<path d="M13.37 7.33634C13.5557 7.13201 13.5407 6.81578 13.3363 6.63003C13.132 6.44428 12.8158 6.45933 12.63 6.66366L8.037 11.716L5.4 8.2C5.23431 7.97909 4.92091 7.93431 4.7 8.1C4.47909 8.26569 4.43431 8.57909 4.6 8.8L7.963 13.284L13.37 7.33634Z" fill="black"/>
<path fill-rule="evenodd" clip-rule="evenodd" d="M18 9C18 13.9706 13.9706 18 9 18C4.02944 18 0 13.9706 0 9C0 4.02944 4.02944 0 9 0C13.9706 0 18 4.02944 18 9ZM17 9C17 13.4183 13.4183 17 9 17C4.58172 17 1 13.4183 1 9C1 4.58172 4.58172 1 9 1C13.4183 1 17 4.58172 17 9Z" fill="black"/>
</svg>
