<svg width="203" height="54" viewBox="0 0 203 54" fill="none" xmlns="http://www.w3.org/2000/svg">
<g clip-path="url(#clip0_1085_3652)">
<path d="M22.6258 45.613C20.5849 45.613 18.5491 45.1736 16.577 44.3074C13.5653 42.9841 8.70889 39.7355 2.67281 31.7726L2.58363 31.6558C0.300669 28.651 0.152888 24.5108 2.21418 21.3511C2.30845 21.2038 2.43075 21.0082 2.58108 20.7694C4.11749 18.3006 8.08719 11.9252 14.3653 8.23208L14.3475 8.2143L15.2597 7.72916C17.5095 6.54045 19.8485 5.93848 22.2156 5.93848C25.4056 5.93848 28.4784 7.08147 30.8684 9.15409C34.4763 12.2884 35.4012 17.6148 33.0749 21.821C32.0914 23.5964 30.4633 24.8232 29.2657 25.542C30.5091 26.172 32.2239 27.2769 33.3323 28.9786C35.9592 33.0071 35.4165 38.3867 32.043 41.77C29.5715 44.249 26.2286 45.6155 22.6283 45.6155L22.6258 45.613ZM15.2469 14.9326C15.1807 15.0951 15.3641 15.5345 15.7336 15.9231C16.1948 16.4083 16.9744 16.9595 16.9821 16.9645L17.0076 16.9849C17.0076 16.9849 17.7719 17.5716 18.3758 17.8688C18.6663 18.011 18.9822 18.0974 19.2217 18.0974C19.2905 18.0974 19.4077 18.0897 19.4689 18.0415C19.5351 17.8789 19.3517 17.4395 18.9822 17.0509C18.521 16.5658 17.7414 16.0146 17.7337 16.0095L17.7082 15.9917C17.7082 15.9917 16.9439 15.405 16.34 15.1078C16.0495 14.9656 15.7336 14.8792 15.4941 14.8792C15.4253 14.8792 15.3081 14.8868 15.2469 14.9351V14.9326Z" fill="white"/>
<path d="M22.2155 6.7005C25.2858 6.7005 28.1446 7.80031 30.3639 9.72816C33.5641 12.5094 34.647 17.3989 32.4022 21.4527C30.8531 24.2492 27.4745 25.6056 27.4745 25.6056C27.4745 25.6056 30.9422 26.713 32.6876 29.3927C35.2177 33.2738 34.489 38.2318 31.4977 41.2315C29.2147 43.5226 26.0578 44.851 22.6258 44.851C20.7607 44.851 18.814 44.4573 16.8852 43.6115C10.3166 40.7261 4.385 32.7658 3.19256 31.1961C1.09815 28.4377 0.963109 24.6658 2.85369 21.7677C3.93147 20.1141 8.34196 12.2453 15.6189 8.40483H15.6164C17.8229 7.23644 20.0702 6.7005 22.2155 6.7005ZM17.6624 14.2239C17.9019 14.2239 18.1592 14.0944 18.3325 13.8607C18.5974 13.5 18.5694 13.0301 18.2688 12.8092C18.1643 12.733 18.042 12.6949 17.9121 12.6949C17.6725 12.6949 17.4152 12.8244 17.2445 13.0606C16.9795 13.4188 17.0075 13.8886 17.3056 14.1096C17.4101 14.1858 17.535 14.2239 17.6624 14.2239ZM19.2242 18.8569C19.5657 18.8569 19.8816 18.7578 20.088 18.4936C20.5008 17.8942 20.037 17.0509 19.5376 16.5251C19.0153 15.9765 18.1745 15.3847 18.1745 15.3847C18.1745 15.3847 17.3591 14.7573 16.6788 14.422C16.3272 14.2493 15.8941 14.1147 15.494 14.1147C15.1526 14.1147 14.8367 14.2138 14.6303 14.4779C14.2175 15.0774 14.6813 15.9206 15.1807 16.4464C15.703 16.995 16.5438 17.5869 16.5438 17.5869C16.5438 17.5869 17.3591 18.2142 18.0394 18.5495C18.3911 18.7222 18.8242 18.8569 19.2242 18.8569ZM21.0205 16.6928C21.2601 16.6928 21.5148 16.5632 21.6881 16.3296C21.9531 15.9689 21.9251 15.499 21.6244 15.278C21.5199 15.2018 21.3976 15.1663 21.2702 15.1663C21.0307 15.1663 20.7734 15.2958 20.6001 15.5295C20.3351 15.8876 20.3632 16.3575 20.6638 16.5785C20.7683 16.6547 20.8931 16.6928 21.0205 16.6928ZM22.2155 5.17651C19.7236 5.17651 17.2623 5.80897 14.9004 7.0561L13.071 8.02129L13.1397 8.08987C7.18265 11.9278 3.42697 17.9653 1.92878 20.3707C1.78355 20.6044 1.66379 20.7974 1.57207 20.9396C-0.662481 24.3661 -0.50196 28.8593 1.97464 32.1181L2.06382 32.2349C8.20183 40.3299 13.1754 43.6496 16.2712 45.0085C18.3427 45.9178 20.4804 46.3775 22.6283 46.3775C26.4324 46.3775 29.9689 44.9323 32.5831 42.3085C36.2089 38.6738 36.7923 32.8928 33.9692 28.5647C33.0825 27.2032 31.8417 26.1949 30.7155 25.4913C31.7882 24.7064 32.9526 23.6142 33.7424 22.1918C36.2445 17.6732 35.2457 11.9506 31.3703 8.58263C28.8427 6.38809 25.5916 5.17905 22.2155 5.17905V5.17651Z" fill="#CCCCCC"/>
<path d="M21.6881 16.3296C21.4231 16.6877 20.9645 16.7995 20.6638 16.5785C20.3632 16.3575 20.3351 15.8876 20.6001 15.5295C20.8651 15.1713 21.3237 15.0596 21.6244 15.278C21.9251 15.499 21.9531 15.9689 21.6881 16.3296Z" fill="black"/>
<path d="M18.3324 13.8607C18.0649 14.2188 17.6063 14.3306 17.3056 14.1096C17.0075 13.8886 16.9795 13.4187 17.2445 13.0606C17.5095 12.6999 17.9681 12.5882 18.2687 12.8091C18.5694 13.0301 18.5974 13.5 18.3324 13.8607Z" fill="black"/>
<path d="M20.088 18.4936C19.637 19.0626 18.6917 18.8695 18.0394 18.5495C17.3591 18.2142 16.5438 17.5868 16.5438 17.5868C16.5438 17.5868 15.703 16.995 15.1806 16.4464C14.6812 15.9206 14.2175 15.0773 14.6303 14.4779C15.0813 13.9089 16.0265 14.102 16.6788 14.422C17.3591 14.7573 18.1745 15.3847 18.1745 15.3847C18.1745 15.3847 19.0153 15.9765 19.5376 16.5251C20.037 17.0509 20.5007 17.8942 20.088 18.4936Z" fill="#F2AE3D"/>
<path d="M50.643 42.1128C48.2887 42.1128 45.9751 41.5362 43.7686 40.4034C41.5544 39.2274 39.6613 37.5053 38.1376 35.2803C36.6267 32.9841 35.8649 30.3832 35.8649 27.5359C35.8649 23.2712 37.386 19.6975 40.39 16.9187C43.3762 14.1552 46.844 12.7532 50.6939 12.7532C54.5439 12.7532 57.9989 14.1552 60.9494 16.9213C63.9152 19.6645 65.4211 23.2179 65.4211 27.4851C65.4211 30.434 64.6414 33.106 63.1024 35.4225C61.5711 37.6958 59.6729 39.4052 57.4562 40.5101C55.2828 41.5743 52.9922 42.1154 50.643 42.1154V42.1128ZM50.643 23.2154C49.5907 23.2154 48.6301 23.576 47.7077 24.3152C46.8363 25.0162 46.4134 26.0525 46.4134 27.48C46.4134 28.9075 46.8516 29.8879 47.751 30.5889C48.6861 31.2874 49.6467 31.6481 50.592 31.6481C51.5373 31.6481 52.5132 31.2722 53.4941 30.533C54.4216 29.832 54.8726 28.8008 54.8726 27.3809C54.8726 25.9611 54.4521 24.9425 53.5884 24.2745C52.666 23.5608 51.7004 23.2154 50.643 23.2154Z" fill="#FC887B"/>
<path d="M50.694 13.5126C54.363 13.5126 57.6065 14.8334 60.4271 17.475C63.2477 20.0836 64.6567 23.4186 64.6567 27.4825C64.6567 30.2943 63.9254 32.7987 62.4655 35.0009C61.0055 37.1675 59.2219 38.7778 57.1148 39.8268C55.0433 40.8428 52.8852 41.3508 50.643 41.3508C48.4008 41.3508 46.2274 40.8098 44.1203 39.7252C42.0131 38.6076 40.2295 36.9821 38.7696 34.8485C37.3427 32.6819 36.6293 30.2435 36.6293 27.5333C36.6293 23.4694 38.0561 20.1166 40.9098 17.475C43.7635 14.8334 47.0249 13.5126 50.694 13.5126ZM50.592 32.4101C51.7131 32.4101 52.8342 31.9859 53.9553 31.1401C55.0764 30.2943 55.637 29.0395 55.637 27.3809C55.637 25.7223 55.1096 24.4854 54.0572 23.6726C53.0049 22.8598 51.866 22.4534 50.643 22.4534C49.42 22.4534 48.2811 22.8775 47.2288 23.7234C46.1764 24.5692 45.649 25.8239 45.649 27.4825C45.649 29.1411 46.1917 30.3451 47.2797 31.1909C48.3677 32.0037 49.4709 32.4101 50.592 32.4101ZM50.694 11.9886C46.6427 11.9886 43.0017 13.4593 39.8703 16.3574C36.7057 19.286 35.1005 23.0477 35.1005 27.5333C35.1005 30.533 35.9057 33.2762 37.4905 35.6841L37.4981 35.6968L37.5058 35.7095C39.1008 38.0387 41.0831 39.8421 43.4017 41.0714L43.4094 41.0765L43.417 41.0816C45.7331 42.2728 48.1638 42.8774 50.6405 42.8774C53.1171 42.8774 55.5121 42.3109 57.7874 41.1959C60.1316 40.0275 62.1291 38.2317 63.7318 35.8518C65.3599 33.3981 66.1829 30.5864 66.1829 27.4825C66.1829 22.9969 64.5956 19.253 61.4641 16.3574C58.3709 13.4593 54.7452 11.9886 50.6914 11.9886H50.694ZM48.2097 29.9819C47.7638 29.6314 47.1778 28.9887 47.1778 27.4825C47.1778 26.2989 47.509 25.4556 48.1893 24.9095C48.969 24.2822 49.7716 23.9774 50.643 23.9774C51.5144 23.9774 52.3374 24.272 53.1222 24.8765C53.5451 25.2042 54.1082 25.8188 54.1082 27.3809C54.1082 28.943 53.4942 29.5755 53.033 29.926C52.1769 30.5737 51.3794 30.8861 50.592 30.8861C49.8047 30.8861 49.0276 30.5889 48.2097 29.9819Z" fill="#EA564B"/>
<path d="M90.2687 41.6048C87.8812 41.6048 86.4162 41.0816 85.7868 40.0072C85.6416 39.7608 85.5218 39.4992 85.4276 39.2173C84.9664 39.6363 84.5128 39.9996 84.0797 40.2993C82.7853 41.1349 81.3763 41.5515 79.873 41.5515C76.2295 41.5515 73.1567 40.1647 70.7387 37.4316C68.3767 34.6859 67.1843 31.323 67.1843 27.4292V18.5393C67.1843 17.696 67.2021 17.0915 67.2378 16.6927V16.6597L67.248 16.6267C67.3295 16.1847 67.4977 15.6919 67.7652 15.1205L67.7805 15.0925C68.4047 13.8936 69.9259 13.3094 72.433 13.3094C75.1619 13.3094 76.8104 14.1324 77.3353 15.7529C77.5697 16.3854 77.6818 17.315 77.6818 18.5926V27.4825C77.6818 28.6713 77.9927 29.5577 78.6296 30.1952C79.2921 30.8277 80.1686 31.1401 81.2999 31.1401C82.4312 31.1401 83.3484 30.815 84.0211 30.1444C84.732 29.4637 85.0709 28.5976 85.0709 27.4825V18.491C85.0709 17.6833 85.0887 17.0966 85.1244 16.6952V16.6673L85.132 16.6394C85.2135 16.1466 85.4072 15.6234 85.7206 15.0366C86.299 13.8809 87.8074 13.312 90.3196 13.312C92.8319 13.312 94.2995 13.8962 94.9212 15.0951L94.934 15.123C95.2015 15.6945 95.362 16.233 95.4079 16.7181C95.4792 17.1372 95.5149 17.7366 95.5149 18.5443V36.5274C95.5149 37.3072 95.4792 37.9041 95.4079 38.3537C95.3595 38.8312 95.1786 39.3392 94.855 39.9031C94.19 41.0511 92.6892 41.6074 90.2661 41.6074L90.2687 41.6048Z" fill="white"/>
<path d="M90.3196 14.0715C92.4599 14.0715 93.767 14.5287 94.2435 15.4431C94.4804 15.9511 94.618 16.4083 94.6511 16.8147C94.7199 17.1881 94.753 17.7621 94.753 18.5419V36.5249C94.753 37.2691 94.7199 37.8457 94.6511 38.2521C94.618 38.6255 94.4651 39.0471 94.1925 39.5221C93.6829 40.4035 92.3758 40.8429 90.2687 40.8429C88.1615 40.8429 86.9232 40.4365 86.4467 39.6237C86.1079 39.0471 85.9371 38.3537 85.9371 37.5409C85.8021 37.7771 85.4963 38.1175 85.0199 38.5569C84.5434 38.9963 84.0848 39.3697 83.644 39.6745C82.4898 40.4187 81.2311 40.7921 79.873 40.7921C76.441 40.7921 73.5873 39.5043 71.3119 36.9313C69.0697 34.3228 67.9486 31.158 67.9486 27.4318V18.5419C67.9486 17.7291 67.9665 17.1373 67.9996 16.7639C68.0684 16.3905 68.2213 15.9511 68.4582 15.4431C68.9347 14.5287 70.2596 14.0715 72.433 14.0715C74.8103 14.0715 76.204 14.7141 76.6117 16.0019C76.8155 16.5429 76.9174 17.4065 76.9174 18.5927V27.4826C76.9174 28.872 77.3073 29.954 78.0895 30.7338C78.9048 31.5136 79.9749 31.9022 81.2999 31.9022C82.6248 31.9022 83.7459 31.4958 84.5613 30.683C85.4097 29.8702 85.8352 28.8034 85.8352 27.4826V18.4911C85.8352 17.7113 85.8531 17.1373 85.8862 16.7639C85.955 16.3575 86.1231 15.9003 86.3958 15.3923C86.8366 14.5109 88.1462 14.0715 90.3196 14.0715ZM90.3196 12.5475C89.2826 12.5475 86.1333 12.5475 85.0377 14.6913C84.6887 15.3466 84.4721 15.9435 84.3778 16.5124L84.3676 16.5683L84.3625 16.6242C84.3243 17.0484 84.3065 17.658 84.3065 18.4885V27.4801C84.3065 28.3894 84.0517 29.0574 83.5039 29.5806L83.4937 29.5908L83.4835 29.6009C82.9611 30.1216 82.2477 30.3731 81.3024 30.3731C80.3571 30.3731 79.6845 30.1343 79.1622 29.639C78.6831 29.1539 78.4487 28.4453 78.4487 27.4775V18.5876C78.4487 17.2109 78.3239 16.2279 78.0589 15.499C77.2588 13.0555 74.5631 12.5424 72.4356 12.5424C71.3986 12.5424 68.2442 12.5424 67.1027 14.737L67.0874 14.7649L67.0747 14.7929C66.7791 15.4253 66.5906 15.979 66.4963 16.4845L66.4836 16.5505L66.4785 16.6191C66.4403 17.0433 66.4224 17.6681 66.4224 18.5342V27.4242C66.4224 31.5059 67.6786 35.0365 70.1526 37.9143L70.1603 37.9219L70.1679 37.9295C72.7362 40.8327 76.0027 42.3059 79.8756 42.3059C81.5266 42.3059 83.0758 41.8487 84.4772 40.9445L84.4976 40.9318L84.5179 40.9191C84.7294 40.7718 84.946 40.6118 85.1651 40.439C85.955 41.7294 87.6264 42.3567 90.2737 42.3567C92.9211 42.3567 94.7097 41.676 95.5225 40.2739C95.8971 39.6186 96.1111 39.0192 96.1723 38.4401C96.2487 37.9524 96.2869 37.3225 96.2869 36.5148V18.5317C96.2869 17.6961 96.2487 17.0661 96.1723 16.6039C96.1136 16.0324 95.9378 15.438 95.6321 14.7878L95.6193 14.7598L95.6041 14.7319C94.4626 12.5374 91.3464 12.5374 90.3222 12.5374L90.3196 12.5475Z" fill="#CCCCCC"/>
<path d="M103.235 53.238C102.094 53.238 101.184 53.1262 100.458 52.8976C99.6527 52.6309 99.0667 52.1737 98.6998 51.5337L98.6794 51.4956C98.4068 50.952 98.2335 50.4694 98.152 50.0224L98.1469 49.9893V49.9563C98.1087 49.5575 98.0908 48.9708 98.0908 48.1606V18.4936C98.0908 17.6833 98.1087 17.0966 98.1443 16.6978V16.6648L98.1545 16.6318C98.2361 16.1847 98.4093 15.7021 98.6819 15.1586C99.3011 13.9648 100.68 13.3654 102.779 13.3654C104.879 13.3654 106.079 13.6371 106.848 14.2213C107.274 14.516 107.607 14.8817 107.847 15.3211C109.256 14.0562 111.177 13.4162 113.582 13.4162C116.574 13.4162 119.417 14.8131 122.036 17.5665C124.643 20.3071 125.965 23.5431 125.965 27.1829C125.965 30.8226 124.643 34.0586 122.036 36.7992C119.455 39.55 116.627 40.9496 113.633 40.9496C111.455 40.9496 109.679 40.4898 108.334 39.578V48.1123C108.334 48.9251 108.298 49.5245 108.227 49.9436C108.178 50.4135 108.002 50.9088 107.689 51.4625C107.358 52.1509 106.782 52.6335 105.979 52.9002C105.284 53.1313 104.387 53.2431 103.24 53.2431L103.235 53.238ZM109.513 29.7203C110.181 30.4366 110.996 30.7845 112 30.7845C113.004 30.7845 113.903 30.4289 114.609 29.6974C115.361 28.9481 115.72 28.143 115.72 27.2286C115.72 26.3142 115.386 25.4887 114.701 24.7496C114.021 23.9876 113.159 23.6218 112.051 23.6218C110.943 23.6218 110.16 23.9825 109.523 24.7267C108.858 25.5065 108.535 26.3243 108.535 27.2286C108.535 28.1328 108.856 28.9431 109.513 29.7203Z" fill="#D0E6A5"/>
<path d="M102.777 14.1223C104.578 14.1223 105.783 14.3585 106.395 14.8335C107.039 15.2729 107.414 15.9333 107.516 16.8146C108.808 15.0544 110.828 14.1731 113.58 14.1731C116.332 14.1731 118.999 15.4761 121.478 18.0846C123.958 20.6932 125.198 23.7234 125.198 27.1778C125.198 30.6321 123.958 33.6623 121.478 36.2709C119.032 38.8795 116.416 40.1825 113.631 40.1825C110.846 40.1825 108.823 39.4027 107.567 37.8457V48.1072C107.567 48.887 107.534 49.461 107.465 49.8344C107.432 50.2078 107.279 50.6294 107.006 51.1044C106.769 51.6124 106.344 51.968 105.732 52.1712C105.121 52.3744 104.287 52.476 103.235 52.476C102.183 52.476 101.332 52.3744 100.687 52.1712C100.076 51.968 99.6349 51.6302 99.3623 51.1552C99.1253 50.6802 98.9724 50.2586 98.9036 49.8852C98.8705 49.5118 98.8527 48.9378 98.8527 48.158V18.491C98.8527 17.7113 98.8705 17.1372 98.9036 16.7638C98.9724 16.3905 99.1253 15.9688 99.3623 15.4938C99.8387 14.5795 100.975 14.1223 102.777 14.1223ZM112 31.5465C113.256 31.5465 114.311 31.1071 115.16 30.2257C116.044 29.3444 116.484 28.3462 116.484 27.2286C116.484 26.111 116.077 25.1128 115.261 24.2314C114.446 23.317 113.376 22.8598 112.051 22.8598C110.726 22.8598 109.725 23.317 108.943 24.2314C108.16 25.1458 107.77 26.144 107.77 27.2286C107.77 28.3131 108.16 29.3113 108.943 30.2257C109.758 31.1071 110.777 31.5465 112 31.5465ZM102.777 12.5983C100.369 12.5983 98.7635 13.3374 98.0042 14.7928L97.9991 14.803L97.994 14.8131C97.6883 15.4227 97.4946 15.9714 97.3978 16.4921L97.3851 16.5581L97.38 16.6267C97.3417 17.0483 97.3239 17.6605 97.3239 18.491V48.158C97.3239 48.9911 97.3417 49.6007 97.38 50.0224L97.3851 50.0909L97.3978 50.157C97.4921 50.6777 97.6883 51.2263 97.994 51.8359L98.0119 51.874L98.0322 51.9121C98.4883 52.7071 99.2374 53.2989 100.201 53.619L100.213 53.624H100.226C101.029 53.8806 102.012 54.0025 103.235 54.0025C104.458 54.0025 105.439 53.878 106.216 53.619C107.2 53.2913 107.941 52.669 108.362 51.813C108.713 51.1857 108.917 50.6065 108.981 50.0452C109.057 49.5829 109.095 48.9479 109.095 48.1097V40.8657C110.364 41.4271 111.88 41.709 113.631 41.709C116.844 41.709 119.861 40.2307 122.594 37.3148C125.333 34.4345 126.727 31.0233 126.727 27.1803C126.727 23.3373 125.333 19.9261 122.587 17.0382C119.817 14.1273 116.788 12.6516 113.58 12.6516C111.327 12.6516 109.457 13.1774 107.992 14.2213C107.786 13.9927 107.554 13.7844 107.294 13.6041C106.384 12.9208 104.945 12.6008 102.777 12.6008V12.5983ZM110.087 29.2148C109.557 28.5874 109.299 27.9372 109.299 27.2286C109.299 26.5199 109.564 25.8544 110.107 25.2194C110.594 24.6505 111.213 24.3838 112.051 24.3838C112.938 24.3838 113.595 24.6581 114.117 25.2448L114.128 25.255L114.138 25.2652C114.696 25.8671 114.956 26.492 114.956 27.2286C114.956 27.9652 114.678 28.5519 114.079 29.1488L114.069 29.1589L114.059 29.1691C113.498 29.7508 112.843 30.0225 112.003 30.0225C111.218 30.0225 110.609 29.766 110.089 29.2148H110.087Z" fill="#A4C43F"/>
<path d="M138.443 41.6963C137.477 41.6963 136.297 41.6125 134.942 41.4474C132.08 41.0766 130.175 40.0758 129.273 38.4731C128.248 36.6849 127.749 33.9697 127.749 30.175V5.99435C127.749 5.18409 127.767 4.59736 127.802 4.19858V4.17064L127.81 4.1427C127.889 3.67026 128.065 3.14195 128.33 2.57553L128.345 2.54759C128.969 1.34872 130.491 0.764526 132.998 0.764526C135.505 0.764526 136.878 1.3411 137.538 2.52727C137.862 3.13179 138.04 3.66773 138.089 4.17318C138.16 4.62276 138.196 5.23743 138.196 6.04769V29.5679C138.196 30.9497 138.333 31.3815 138.379 31.4856C138.412 31.5059 138.578 31.5999 139.062 31.5999C140.03 31.5999 140.428 31.6609 140.649 31.7167C140.993 31.7777 141.365 31.9479 141.783 32.2374C142.708 32.8445 143.139 34.1932 143.139 36.4767C143.139 38.9303 142.711 40.3705 141.793 41.0131C141.123 41.4753 140.028 41.6989 138.445 41.6989L138.443 41.6963Z" fill="#FFDD95"/>
<path d="M132.995 1.52397C135.067 1.52397 136.358 1.98116 136.868 2.89555C137.141 3.40355 137.294 3.86075 137.327 4.26714C137.395 4.67354 137.429 5.26536 137.429 6.04513V29.5654C137.429 30.7845 137.53 31.5643 137.734 31.9021C137.938 32.2069 138.379 32.3593 139.059 32.3593C139.773 32.3593 140.249 32.3924 140.486 32.4609C140.723 32.494 141.014 32.6311 141.352 32.8673C142.033 33.3067 142.372 34.5107 142.372 36.4741C142.372 38.6077 142.033 39.9107 141.352 40.3857C140.822 40.7514 139.852 40.9343 138.443 40.9343C137.502 40.9343 136.366 40.853 135.033 40.6905C132.417 40.3527 130.72 39.4891 129.938 38.0997C128.987 36.4411 128.511 33.7995 128.511 30.175V5.99433C128.511 5.21456 128.529 4.64052 128.562 4.26714C128.631 3.86075 128.783 3.40355 129.02 2.89555C129.497 1.98116 130.822 1.52397 132.995 1.52397ZM132.995 -2.34956e-05C131.958 -2.34956e-05 128.804 -2.34374e-05 127.662 2.19452L127.647 2.22246L127.634 2.2504C127.334 2.89047 127.145 3.46705 127.053 4.01569L127.043 4.07157L127.038 4.12745C127 4.54908 126.982 5.15868 126.982 5.99433V30.175C126.982 34.1043 127.515 36.944 128.61 38.8566C129.632 40.6702 131.729 41.8004 134.837 42.2018C136.236 42.3719 137.444 42.4583 138.443 42.4583C140.211 42.4583 141.414 42.1967 142.224 41.6379C143.37 40.8378 143.903 39.197 143.903 36.4741C143.903 34.8638 143.727 32.6108 142.214 31.605C141.714 31.2595 141.253 31.0512 140.81 30.9674C140.422 30.8734 139.89 30.8328 139.064 30.8328C139.049 30.8328 139.036 30.8328 139.021 30.8328C138.99 30.5839 138.962 30.1851 138.962 29.5628V6.04513C138.962 5.20948 138.924 4.56432 138.85 4.07665C138.789 3.47721 138.585 2.85492 138.224 2.17928L138.218 2.16658L138.211 2.15388C137.403 0.703551 135.699 -0.00256348 133 -0.00256348L132.995 -2.34956e-05Z" fill="#FCB332"/>
<path d="M158.431 42.1128C156.077 42.1128 153.763 41.5362 151.557 40.4034C149.343 39.2274 147.45 37.5053 145.926 35.2803C144.415 32.9841 143.653 30.3832 143.653 27.5359C143.653 23.2712 145.174 19.6975 148.178 16.9187C151.165 14.1552 154.632 12.7532 158.482 12.7532C162.332 12.7532 165.787 14.1552 168.738 16.9213C171.704 19.6645 173.209 23.2179 173.209 27.4851C173.209 30.434 172.43 33.106 170.891 35.4225C169.359 37.6958 167.461 39.4052 165.244 40.5101C163.071 41.5743 160.78 42.1154 158.431 42.1154V42.1128ZM158.431 23.2154C157.379 23.2154 156.418 23.576 155.496 24.3152C154.625 25.0162 154.202 26.0525 154.202 27.48C154.202 28.9075 154.64 29.8879 155.539 30.5889C156.487 31.2976 157.422 31.6481 158.38 31.6481C159.338 31.6481 160.301 31.2722 161.282 30.533C162.21 29.832 162.661 28.8008 162.661 27.3809C162.661 25.9611 162.24 24.9425 161.377 24.2745C160.454 23.5608 159.489 23.2154 158.431 23.2154Z" fill="white"/>
<path d="M158.482 13.5126C162.151 13.5126 165.395 14.8334 168.215 17.475C171.036 20.0836 172.445 23.4186 172.445 27.4825C172.445 30.2943 171.714 32.7987 170.254 35.0009C168.794 37.1675 167.01 38.7778 164.903 39.8268C162.832 40.8428 160.674 41.3508 158.431 41.3508C156.189 41.3508 154.016 40.8098 151.909 39.7252C149.801 38.6076 148.018 36.9821 146.558 34.8485C145.131 32.6819 144.418 30.2435 144.418 27.5333C144.418 23.4694 145.844 20.1166 148.698 17.475C151.552 14.8334 154.813 13.5126 158.482 13.5126ZM158.38 32.4101C159.501 32.4101 160.623 31.9859 161.744 31.1401C162.865 30.2943 163.425 29.0395 163.425 27.3809C163.425 25.7223 162.898 24.4854 161.846 23.6726C160.793 22.8598 159.654 22.4534 158.431 22.4534C157.208 22.4534 156.069 22.8775 155.017 23.7234C153.965 24.5692 153.437 25.8239 153.437 27.4825C153.437 29.1411 153.98 30.3451 155.068 31.1909C156.156 32.0037 157.259 32.4101 158.38 32.4101ZM158.482 11.9886C154.431 11.9886 150.79 13.4593 147.659 16.3574C144.494 19.286 142.889 23.0477 142.889 27.5333C142.889 30.533 143.694 33.2737 145.279 35.6841L145.286 35.6968L145.294 35.7095C146.889 38.0387 148.871 39.8421 151.19 41.0714L151.198 41.0765L151.205 41.0816C153.521 42.2728 155.952 42.8774 158.429 42.8774C160.905 42.8774 163.3 42.3109 165.576 41.1959C167.92 40.0275 169.917 38.2317 171.52 35.8518C173.148 33.3981 173.971 30.5864 173.971 27.4825C173.971 22.9969 172.384 19.253 169.252 16.3574C166.162 13.4618 162.534 11.9886 158.48 11.9886H158.482ZM155.998 29.9819C155.552 29.6314 154.966 28.9887 154.966 27.4825C154.966 26.2989 155.297 25.4556 155.978 24.9095C156.757 24.2822 157.56 23.9774 158.431 23.9774C159.303 23.9774 160.126 24.272 160.91 24.8765C161.333 25.2042 161.897 25.8188 161.897 27.3809C161.897 28.943 161.282 29.5755 160.821 29.926C159.965 30.5737 159.168 30.8861 158.38 30.8861C157.593 30.8861 156.816 30.5889 155.998 29.9819Z" fill="#CCCCCC"/>
<path d="M188.222 53.1872C185.524 53.1872 182.917 52.5243 180.471 51.2162C177.798 49.7862 176.552 48.4933 176.552 47.1421C176.552 45.6232 177.138 44.2668 178.29 43.1111C178.963 42.372 179.47 41.8665 179.844 41.5693L179.872 41.549C180.377 41.1833 180.958 40.9978 181.595 40.9978C182.232 40.9978 182.904 41.2595 183.549 41.7751C185.045 42.9257 186.627 43.487 188.372 43.487C189.427 43.487 190.265 43.0832 190.936 42.2501C191.593 41.4322 191.937 40.4822 191.985 39.3519C190.612 40.3451 188.805 40.8454 186.589 40.8454C183.567 40.8454 180.705 39.4688 178.089 36.751C175.51 34.0027 174.206 30.7668 174.206 27.1295C174.206 23.4923 175.528 20.2538 178.135 17.5132C180.754 14.7598 183.684 13.3629 186.843 13.3629C188.105 13.3629 189.277 13.6092 190.324 14.0944C191.31 14.516 192.008 14.9351 192.436 15.3694C192.655 14.9046 192.956 14.5109 193.338 14.1985C194.095 13.5686 195.206 13.2638 196.73 13.2638C198.151 13.2638 199.178 13.3756 199.876 13.6067C200.681 13.8734 201.257 14.3585 201.586 15.0443C201.899 15.5955 202.075 16.0933 202.124 16.5632C202.197 16.9823 202.233 17.5818 202.233 18.3946V39.4256C202.233 43.5327 200.773 46.8855 197.896 49.3976C195.05 51.9147 191.794 53.1923 188.219 53.1923L188.222 53.1872ZM188.12 23.5202C187.014 23.5202 186.15 23.886 185.48 24.6353C184.787 25.4125 184.451 26.2431 184.451 27.1778C184.451 28.1125 184.798 28.8567 185.511 29.5959C186.242 30.3248 187.098 30.683 188.12 30.683C189.142 30.683 189.998 30.3325 190.668 29.6086C191.351 28.8415 191.687 28.0439 191.687 27.1778C191.687 26.3117 191.364 25.4532 190.699 24.6759C190.056 23.8962 189.216 23.5228 188.12 23.5228V23.5202Z" fill="#FC887B"/>
<path d="M196.732 14.0207C198.057 14.0207 199.025 14.1223 199.637 14.3255C200.248 14.5287 200.674 14.8843 200.911 15.3923C201.183 15.8673 201.336 16.2889 201.369 16.6623C201.438 17.0357 201.471 17.6097 201.471 18.3895V39.4205C201.471 43.3143 200.113 46.4486 197.395 48.8184C194.676 51.2238 191.618 52.4252 188.222 52.4252C185.641 52.4252 183.177 51.7978 180.833 50.5456C178.489 49.2934 177.317 48.158 177.317 47.1421C177.317 45.8213 177.826 44.6529 178.845 43.6369C179.49 42.9257 179.984 42.4355 180.323 42.1637C180.698 41.8919 181.121 41.7573 181.597 41.7573C182.074 41.7573 182.565 41.9605 183.075 42.3669C184.706 43.6191 186.471 44.2465 188.375 44.2465C189.667 44.2465 190.719 43.7385 191.534 42.7225C192.35 41.7065 192.757 40.4873 192.757 39.0649V37.5409C191.465 39.2351 189.412 40.0809 186.591 40.0809C183.771 40.0809 181.121 38.7931 178.642 36.2201C176.196 33.6116 174.973 30.5814 174.973 27.127C174.973 23.6726 176.213 20.6424 178.693 18.0339C181.172 15.4253 183.89 14.1223 186.846 14.1223C188 14.1223 189.055 14.3433 190.005 14.7827C190.956 15.1891 191.603 15.5777 191.942 15.9511C192.316 16.2889 192.604 16.6115 192.808 16.9163C192.91 15.9689 193.249 15.2577 193.827 14.7827C194.439 14.2747 195.407 14.0207 196.732 14.0207ZM188.12 31.445C189.376 31.445 190.413 31.0055 191.228 30.1242C192.044 29.2098 192.451 28.2268 192.451 27.1778C192.451 26.1288 192.062 25.095 191.279 24.1806C190.497 23.2332 189.445 22.7582 188.12 22.7582C186.795 22.7582 185.725 23.2154 184.91 24.1298C184.094 25.0442 183.687 26.0602 183.687 27.1778C183.687 28.2954 184.112 29.2428 184.961 30.1242C185.845 31.0055 186.897 31.445 188.12 31.445ZM196.732 12.4967C195.022 12.4967 193.751 12.8625 192.849 13.6118C192.622 13.7972 192.421 14.0029 192.243 14.2315C191.815 13.947 191.282 13.6702 190.63 13.3908C189.486 12.865 188.214 12.5983 186.849 12.5983C183.47 12.5983 180.354 14.074 177.587 16.9849C174.84 19.8728 173.446 23.2865 173.446 27.127C173.446 30.9674 174.82 34.3736 177.528 37.2615L177.536 37.2691L177.543 37.2768C178.761 38.5391 180.033 39.5297 181.35 40.2409C180.644 40.2841 180 40.5178 179.429 40.9318L179.401 40.9521L179.373 40.975C178.97 41.295 178.438 41.8233 177.742 42.5879C176.45 43.8883 175.793 45.4225 175.793 47.1421C175.793 49.3264 178.259 50.8961 180.114 51.8893C182.672 53.2558 185.401 53.9492 188.227 53.9492C191.993 53.9492 195.422 52.6055 198.414 49.9589C201.456 47.3046 203.005 43.7563 203.005 39.4205V18.3895C203.005 17.5487 202.967 16.9163 202.89 16.454C202.827 15.8927 202.625 15.3135 202.271 14.6862C201.851 13.8302 201.109 13.2079 200.126 12.8802C199.351 12.6237 198.243 12.4967 196.737 12.4967H196.732ZM186.051 29.0574C185.48 28.4605 185.215 27.8636 185.215 27.1778C185.215 26.4387 185.488 25.7732 186.051 25.1433C186.573 24.5565 187.231 24.2822 188.12 24.2822C189.009 24.2822 189.611 24.5565 190.097 25.1484L190.105 25.1585L190.115 25.1687C190.658 25.8037 190.923 26.4615 190.923 27.1778C190.923 27.8433 190.653 28.4732 190.095 29.1006C189.572 29.6594 188.943 29.921 188.12 29.921C187.297 29.921 186.647 29.6467 186.051 29.0574ZM186.591 41.6049C188.235 41.6049 189.674 41.3433 190.902 40.8277C190.762 41.1655 190.574 41.4804 190.339 41.7725C189.812 42.4304 189.205 42.725 188.375 42.725C186.9 42.725 185.552 42.2754 184.26 41.3484C185.024 41.5211 185.804 41.6074 186.591 41.6074V41.6049Z" fill="#EA564B"/>
</g>
<defs>
<clipPath id="clip0_1085_3652">
<rect width="203" height="54" fill="white"/>
</clipPath>
</defs>
</svg>
