<svg width="22" height="24" viewBox="0 0 22 24" fill="none" xmlns="http://www.w3.org/2000/svg">
<path d="M14.5 17.8333V19C14.5 19.9283 14.1312 20.8185 13.4748 21.4749C12.8185 22.1313 11.9282 22.5 11 22.5C10.0717 22.5 9.18146 22.1313 8.52508 21.4749C7.86871 20.8185 7.49996 19.9283 7.49996 19V17.8333M14.5 17.8333H7.49996M14.5 17.8333H18.6883C19.1351 17.8333 19.3591 17.8333 19.54 17.7727C19.7101 17.7151 19.8646 17.619 19.9914 17.4919C20.1183 17.3648 20.2141 17.2102 20.2715 17.04C20.3333 16.858 20.3333 16.634 20.3333 16.1837C20.3333 15.9865 20.3333 15.8885 20.317 15.794C20.2882 15.6173 20.2192 15.4496 20.1151 15.304C20.0591 15.2258 19.9891 15.1558 19.8503 15.017L19.3953 14.562C19.3227 14.4894 19.2652 14.4031 19.2259 14.3082C19.1867 14.2134 19.1666 14.1117 19.1666 14.009V9.66667C19.1666 8.5942 18.9554 7.53224 18.545 6.54142C18.1346 5.55059 17.533 4.65031 16.7747 3.89196C16.0163 3.13362 15.116 2.53206 14.1252 2.12165C13.1344 1.71124 12.0724 1.5 11 1.5C9.9275 1.5 8.86554 1.71124 7.87471 2.12165C6.88389 2.53206 5.9836 3.13362 5.22525 3.89196C4.46691 4.65031 3.86536 5.55059 3.45494 6.54142C3.04453 7.53224 2.83329 8.5942 2.83329 9.66667V14.009C2.83337 14.1117 2.81321 14.2134 2.77397 14.3082C2.73474 14.4031 2.67719 14.4894 2.60463 14.562L2.14963 15.017C2.00963 15.157 1.94079 15.2258 1.88596 15.3028C1.78099 15.4487 1.71112 15.6167 1.68179 15.794C1.66663 15.8873 1.66663 15.9865 1.66663 16.1837C1.66663 16.634 1.66663 16.858 1.72729 17.04C1.78485 17.2104 1.88103 17.3652 2.00833 17.4923C2.13563 17.6194 2.2906 17.7154 2.46113 17.7727C2.64196 17.8333 2.86479 17.8333 3.31163 17.8333H7.49996" stroke="#4E4E4E" stroke-width="1.8" stroke-linecap="round" stroke-linejoin="round"/>
</svg>
