<svg width="24" height="25" viewBox="0 0 24 25" fill="none" xmlns="http://www.w3.org/2000/svg">
<path d="M1.4585 8.66675H22.5418" stroke="#707070" stroke-width="1.6"/>
<rect x="1.4585" y="2.91675" width="21.0833" height="21.0833" rx="4.5" stroke="#707070" stroke-width="1.7"/>
<path d="M11.8763 11.9151C11.9359 11.8281 12.0641 11.8281 12.1237 11.9151L12.8249 11.4345L12.1237 11.9151L13.1257 13.377C13.3662 13.728 13.7205 13.9854 14.1286 14.1057L15.8287 14.6069C15.9297 14.6367 15.9694 14.7587 15.9051 14.8422L14.8243 16.2469C14.5648 16.5841 14.4295 17.0005 14.4412 17.4259L14.49 19.1976C14.4929 19.303 14.3891 19.3784 14.2898 19.3431L12.6198 18.7492C12.2189 18.6067 11.7811 18.6067 11.3802 18.7492L9.71023 19.3431C9.61093 19.3784 9.50713 19.303 9.51003 19.1976L9.55876 17.4259C9.57046 17.0005 9.43516 16.5841 9.17568 16.2469L8.09487 14.8422L7.4212 15.3605L8.09487 14.8422C8.0306 14.7587 8.07025 14.6367 8.17134 14.6069L9.87139 14.1057C10.2796 13.9854 10.6338 13.728 10.8743 13.377L11.8763 11.9151Z" stroke="#707070" stroke-width="1.7"/>
<path d="M7.2085 1V4.83333" stroke="#707070" stroke-width="1.6" stroke-linecap="round"/>
<path d="M16.7915 1V4.83333" stroke="#707070" stroke-width="1.6" stroke-linecap="round"/>
</svg>
