<svg width="50" height="50" viewBox="0 0 50 50" fill="none" xmlns="http://www.w3.org/2000/svg">
<rect x="0.5" y="0.5" width="49" height="49" rx="15.5" fill="white" fill-opacity="0.3" stroke="white"/>
<path d="M23.6705 24.4334H25.4432V30.0668M15.25 20.5334H34.75M29.4318 17.0668V13.6001M20.5682 17.0668V13.6001M17.0227 34.4001H32.9773C33.4474 34.4001 33.8983 34.2175 34.2308 33.8924C34.5632 33.5674 34.75 33.1265 34.75 32.6668V17.0668C34.75 16.6071 34.5632 16.1662 34.2308 15.8411C33.8983 15.516 33.4474 15.3334 32.9773 15.3334H17.0227C16.5526 15.3334 16.1017 15.516 15.7692 15.8411C15.4368 16.1662 15.25 16.6071 15.25 17.0668V32.6668C15.25 33.1265 15.4368 33.5674 15.7692 33.8924C16.1017 34.2175 16.5526 34.4001 17.0227 34.4001Z" stroke="white" stroke-width="1.8" stroke-linecap="round" stroke-linejoin="round"/>
</svg>
