<svg width="18" height="16" viewBox="0 0 18 16" fill="none" xmlns="http://www.w3.org/2000/svg">
<path d="M11.5714 1.48146C12.1551 1.14441 12.817 0.966209 13.491 0.96461C14.1651 0.963012 14.8277 1.13807 15.413 1.47235C15.9983 1.80662 16.4858 2.28844 16.8269 2.86979C17.168 3.45115 17.3509 4.11174 17.3571 4.78574C17.3547 5.27392 17.2632 5.75756 17.0871 6.21288M14.1081 8.2186C13.9112 8.20533 13.7136 8.20533 13.5167 8.2186C13.3066 7.23037 12.7635 6.34425 11.9783 5.70847C11.1931 5.07268 10.2135 4.72577 9.20314 4.72577C8.19282 4.72577 7.21314 5.07268 6.42795 5.70847C5.64276 6.34425 5.09969 7.23037 4.88957 8.2186C4.69671 8.20574 4.50386 8.20574 4.311 8.2186C3.84338 8.18994 3.37484 8.2573 2.93424 8.41654C2.49363 8.57577 2.09028 8.82351 1.74903 9.14449C1.40777 9.46547 1.13582 9.85291 0.949935 10.283C0.764048 10.713 0.668152 11.1765 0.668152 11.645C0.668152 12.1135 0.764048 12.5771 0.949935 13.0071C1.13582 13.4371 1.40777 13.8246 1.74903 14.1456C2.09028 14.4665 2.49363 14.7143 2.93424 14.8735C3.37484 15.0328 3.84338 15.1001 4.311 15.0715H14.1081C14.9806 15.018 15.7998 14.6337 16.3987 13.997C16.9976 13.3603 17.331 12.5191 17.331 11.645C17.331 10.7709 16.9976 9.92975 16.3987 9.29304C15.7998 8.65634 14.9806 8.27207 14.1081 8.2186Z" stroke="white" stroke-linecap="round" stroke-linejoin="round"/>
</svg>
