<svg width="85" height="20" viewBox="0 0 85 20" fill="none" xmlns="http://www.w3.org/2000/svg">
<path d="M3.28 15.66C2.96 15.5133 2.61333 15.2933 2.24 15C1.88 14.7067 1.58 14.36 1.34 13.96C0.78 13 0.5 11.7467 0.5 10.2C0.5 9.24 0.653333 8.38667 0.96 7.64C1.26667 6.88 1.64 6.29333 2.08 5.88C2.52 5.46667 3.02667 5.12667 3.6 4.86C4.52 4.43333 5.44 4.22 6.36 4.22C7.90667 4.22 8.98 4.34 9.58 4.58C10.1933 4.82 10.5 5.22667 10.5 5.8C10.5 6.37333 10.3933 6.98667 10.18 7.64C9.98 8.28 9.71333 8.6 9.38 8.6C9.27333 8.6 8.94667 8.48667 8.4 8.26C7.86667 8.03333 7.4 7.92 7 7.92C6.61333 7.92 6.31333 8.08 6.1 8.4C5.9 8.70667 5.8 9.31333 5.8 10.22C5.8 11.1133 5.89333 11.7267 6.08 12.06C6.26667 12.38 6.55333 12.54 6.94 12.54C7.34 12.54 7.83333 12.4067 8.42 12.14C9.00667 11.8733 9.33333 11.74 9.4 11.74C9.65333 11.74 9.89333 12.04 10.12 12.64C10.36 13.24 10.48 13.7733 10.48 14.24C10.48 14.96 10.1067 15.4667 9.36 15.76C8.61333 16.04 7.6 16.18 6.32 16.18C5.05333 16.18 4.04 16.0067 3.28 15.66ZM17.8561 16.18C16.8561 16.18 15.9961 16.0933 15.2761 15.92C14.5561 15.7467 13.9028 15.44 13.3161 15C12.1028 14.12 11.4961 12.48 11.4961 10.08C11.4961 7.94667 12.1161 6.42 13.3561 5.5C14.5161 4.64667 16.0161 4.22 17.8561 4.22C18.6428 4.22 19.3161 4.26 19.8761 4.34C20.4361 4.40667 21.0028 4.56 21.5761 4.8C22.1628 5.04 22.6294 5.36667 22.9761 5.78C23.3361 6.19333 23.6294 6.76667 23.8561 7.5C24.0828 8.22 24.1961 9.08 24.1961 10.08C24.1961 12.1067 23.6228 13.6333 22.4761 14.66C21.3294 15.6733 19.7894 16.18 17.8561 16.18ZM17.1561 12.28C17.2494 12.76 17.3428 13.0467 17.4361 13.14C17.5428 13.2333 17.6761 13.28 17.8361 13.28C18.0094 13.28 18.1428 13.2333 18.2361 13.14C18.3428 13.0467 18.4361 12.76 18.5161 12.28C18.6094 11.8 18.6561 11.2 18.6561 10.48C18.6561 9.74667 18.6361 9.18667 18.5961 8.8C18.5694 8.4 18.5294 8.09333 18.4761 7.88C18.4361 7.66667 18.3761 7.5 18.2961 7.38C18.1761 7.20667 18.0294 7.12 17.8561 7.12C17.6961 7.12 17.5628 7.17333 17.4561 7.28C17.3494 7.37333 17.2494 7.66667 17.1561 8.16C17.0628 8.64 17.0161 9.32667 17.0161 10.22C17.0161 11.1133 17.0628 11.8 17.1561 12.28ZM29.4075 16.18C27.9142 16.18 26.8675 15.7933 26.2675 15.02C25.6808 14.2467 25.3875 12.9 25.3875 10.98V5.54C25.3875 5.27333 25.7808 5.02 26.5675 4.78C27.3542 4.52667 28.1808 4.4 29.0475 4.4C30.2075 4.4 30.7875 4.7 30.7875 5.3V10.38C30.7875 11.3933 30.8275 12.1333 30.9075 12.6C30.9875 13.0533 31.1875 13.28 31.5075 13.28C31.9342 13.28 32.1475 13.1 32.1475 12.74V5.54C32.1475 5.26 32.5608 5 33.3875 4.76C34.2142 4.52 35.1142 4.4 36.0875 4.4C37.0608 4.4 37.5475 4.66 37.5475 5.18V15.48C37.5475 15.6667 37.1275 15.8 36.2875 15.88C35.4475 15.96 34.6208 16 33.8075 16C32.9942 16 32.5808 15.8933 32.5675 15.68L32.3675 14.38H32.2075C32.0875 14.86 31.8475 15.2533 31.4875 15.56C31.3008 15.72 31.0208 15.8667 30.6475 16C30.2875 16.12 29.8742 16.18 29.4075 16.18ZM38.9422 18.42V5.7C38.9422 5.42 39.3155 5.13333 40.0622 4.84C40.8089 4.54667 41.6155 4.4 42.4822 4.4C42.8822 4.4 43.1955 4.44667 43.4222 4.54C43.6489 4.63333 43.7889 4.72667 43.8422 4.82C43.8955 4.91333 43.9955 5.31333 44.1422 6.02H44.3022C44.3289 5.9 44.4489 5.71333 44.6622 5.46C44.8755 5.20667 45.0889 5 45.3022 4.84C45.5289 4.68 45.8489 4.54 46.2622 4.42C46.6755 4.28667 47.1555 4.22 47.7022 4.22C48.2622 4.22 48.7689 4.34667 49.2222 4.6C49.6755 4.84 50.0089 5.12667 50.2222 5.46C50.4489 5.78 50.6222 6.19333 50.7422 6.7C50.8755 7.19333 50.9489 7.59333 50.9622 7.9C50.9889 8.19333 51.0022 8.62667 51.0022 9.2C51.0022 9.76 50.9822 10.32 50.9422 10.88C50.9022 11.4267 50.8289 11.9867 50.7222 12.56C50.6155 13.1333 50.4622 13.6267 50.2622 14.04C50.0622 14.4533 49.8089 14.8267 49.5022 15.16C48.8889 15.8267 47.9889 16.16 46.8022 16.16C46.3755 16.16 45.9955 16.1 45.6622 15.98C45.3422 15.8467 45.1022 15.6933 44.9422 15.52C44.6089 15.16 44.4155 14.84 44.3622 14.56L44.3422 14.36H44.1822L44.4622 16.16V18.42C44.4622 18.5667 44.0755 18.68 43.3022 18.76C42.5422 18.8533 41.7555 18.9 40.9422 18.9C40.1422 18.9 39.6089 18.86 39.3422 18.78C39.0755 18.7133 38.9422 18.5933 38.9422 18.42ZM45.5822 10.14C45.5822 9.00667 45.5222 8.21333 45.4022 7.76C45.2822 7.30667 45.1022 7.08 44.8622 7.08C44.6222 7.08 44.4489 7.21333 44.3422 7.48V12.72C44.3422 13.0667 44.5222 13.24 44.8822 13.24C45.3489 13.24 45.5822 12.2067 45.5822 10.14ZM57.6039 1.32V15.52C57.6039 15.6667 57.2239 15.7867 56.4639 15.88C55.7039 15.96 54.9172 16 54.1039 16C53.3039 16 52.7839 15.9667 52.5439 15.9C52.3172 15.82 52.2039 15.6933 52.2039 15.52V1.68C52.2039 1.38667 52.5772 1.1 53.3239 0.819999C54.0839 0.539999 54.8972 0.399999 55.7639 0.399999C56.9906 0.399999 57.6039 0.706666 57.6039 1.32ZM65.1608 16.18C64.1608 16.18 63.3008 16.0933 62.5808 15.92C61.8608 15.7467 61.2074 15.44 60.6208 15C59.4074 14.12 58.8008 12.48 58.8008 10.08C58.8008 7.94667 59.4208 6.42 60.6608 5.5C61.8208 4.64667 63.3208 4.22 65.1608 4.22C65.9474 4.22 66.6208 4.26 67.1808 4.34C67.7408 4.40667 68.3074 4.56 68.8808 4.8C69.4674 5.04 69.9341 5.36667 70.2808 5.78C70.6408 6.19333 70.9341 6.76667 71.1608 7.5C71.3874 8.22 71.5008 9.08 71.5008 10.08C71.5008 12.1067 70.9274 13.6333 69.7808 14.66C68.6341 15.6733 67.0941 16.18 65.1608 16.18ZM64.4608 12.28C64.5541 12.76 64.6474 13.0467 64.7408 13.14C64.8474 13.2333 64.9808 13.28 65.1408 13.28C65.3141 13.28 65.4474 13.2333 65.5408 13.14C65.6474 13.0467 65.7408 12.76 65.8208 12.28C65.9141 11.8 65.9608 11.2 65.9608 10.48C65.9608 9.74667 65.9408 9.18667 65.9008 8.8C65.8741 8.4 65.8341 8.09333 65.7808 7.88C65.7408 7.66667 65.6808 7.5 65.6008 7.38C65.4808 7.20667 65.3341 7.12 65.1608 7.12C65.0008 7.12 64.8674 7.17333 64.7608 7.28C64.6541 7.37333 64.5541 7.66667 64.4608 8.16C64.3674 8.64 64.3208 9.32667 64.3208 10.22C64.3208 11.1133 64.3674 11.8 64.4608 12.28ZM79.3722 14.68V13.52H79.2122C79.1589 13.5867 79.0655 13.6733 78.9322 13.78C78.7989 13.8733 78.4655 14.0067 77.9322 14.18C77.4122 14.3533 76.8189 14.44 76.1522 14.44C75.4989 14.44 74.9455 14.34 74.4922 14.14C74.0389 13.94 73.6855 13.6933 73.4322 13.4C73.1789 13.0933 72.9789 12.6867 72.8322 12.18C72.6055 11.3933 72.4922 10.3267 72.4922 8.98C72.4922 7.43333 72.8189 6.24667 73.4722 5.42C73.7255 5.08667 74.0989 4.80667 74.5922 4.58C75.0989 4.34 75.6389 4.22 76.2122 4.22C76.7855 4.22 77.2589 4.28667 77.6322 4.42C78.0055 4.54 78.2855 4.68667 78.4722 4.86C78.8455 5.23333 79.0589 5.56 79.1122 5.84L79.1322 6.02H79.2922L79.4722 5.24C79.6055 4.68 80.6589 4.4 82.6322 4.4C83.5122 4.4 84.0455 4.53333 84.2322 4.8C84.3389 4.96 84.4055 5.11333 84.4322 5.26C84.4589 5.39333 84.4722 5.6 84.4722 5.88V14.26C84.4722 15.8333 83.9589 17.0333 82.9322 17.86C81.9055 18.6867 80.3989 19.1 78.4122 19.1C76.3055 19.1 74.8722 18.8933 74.1122 18.48C73.7789 18.2933 73.6122 18.1 73.6122 17.9C73.6122 17.58 73.7389 17.04 73.9922 16.28C74.2589 15.52 74.5055 15.14 74.7322 15.14C74.7855 15.14 74.9722 15.1867 75.2922 15.28C76.3055 15.5467 77.1255 15.68 77.7522 15.68C78.3922 15.68 78.8189 15.6 79.0322 15.44C79.2589 15.28 79.3722 15.0267 79.3722 14.68ZM78.5722 12.16C78.7189 12.16 78.8389 12.1067 78.9322 12C79.0255 11.8933 79.0722 11.7733 79.0722 11.64V7.52C79.0189 7.24 78.8722 7.1 78.6322 7.1C78.1255 7.1 77.8722 7.93333 77.8722 9.6C77.8722 10.3733 77.9322 10.9933 78.0522 11.46C78.1855 11.9267 78.3589 12.16 78.5722 12.16Z" fill="white"/>
</svg>
