<svg width="112" height="28" viewBox="0 0 112 28" fill="none" xmlns="http://www.w3.org/2000/svg">
<path d="M7.89483 3.77992C10.8996 2.22336 14.0429 2.71062 16.1545 4.50949C17.9477 6.0374 18.5541 8.72502 17.2965 10.9525C16.4296 12.4893 14.536 13.234 14.536 13.234C14.536 13.234 16.4795 13.8428 17.4567 15.3156C18.874 17.4485 18.466 20.1728 16.7898 21.8218C14.8168 23.7642 11.6718 24.4496 8.60511 23.1289C4.9254 21.5433 1.60343 17.1696 0.934845 16.3059C-0.237933 14.7908 -0.314065 12.7183 0.744927 11.125C1.34841 10.2168 3.81978 5.89281 7.89588 3.78192L7.89483 3.77992Z" fill="white"/>
<path d="M8.4897 7.08926C8.87025 7.27265 9.32716 7.61739 9.32716 7.61739C9.32716 7.61739 9.79873 7.94272 10.0901 8.24426C10.3701 8.53383 10.6305 8.99675 10.3988 9.32581C10.1457 9.63935 9.61658 9.53253 9.2511 9.35627C8.87055 9.17288 8.41364 8.82813 8.41364 8.82813C8.41364 8.82813 7.94207 8.50281 7.65067 8.20126C7.37068 7.9117 7.11029 7.44878 7.34196 7.11972C7.59515 6.80618 8.12422 6.913 8.4897 7.08926Z" fill="#FF6564"/>
<path d="M10.7213 8.27347C10.8894 8.39485 11.1463 8.33345 11.2951 8.13633C11.4438 7.93922 11.428 7.68103 11.2598 7.55965C11.0917 7.43828 10.8347 7.49967 10.686 7.69679C10.5373 7.8939 10.5531 8.15209 10.7213 8.27347Z" fill="#FF6564"/>
<path d="M8.84107 6.91658C9.00925 7.03796 9.26616 6.97656 9.41489 6.77944C9.56361 6.58233 9.54784 6.32414 9.37965 6.20276C9.21147 6.08138 8.95456 6.14278 8.80583 6.3399C8.6571 6.53701 8.67288 6.7952 8.84107 6.91658Z" fill="#FF6564"/>
<path d="M19.6638 14.2931C19.6638 12.0598 20.4631 10.2173 22.0616 8.7657C23.66 7.31406 25.4869 6.58823 27.542 6.58823C29.5972 6.58823 31.4145 7.31406 32.994 8.7657C34.5734 10.1987 35.3632 12.0319 35.3632 14.2652C35.3632 15.8099 34.954 17.1871 34.1358 18.3968C33.3175 19.5879 32.3184 20.4719 31.1386 21.0489C29.9778 21.6072 28.7694 21.8863 27.5135 21.8863C26.2576 21.8863 25.0397 21.5886 23.8598 20.993C22.68 20.3789 21.681 19.4855 20.8627 18.3131C20.0635 17.122 19.6638 15.782 19.6638 14.2931ZM25.6296 16.3031C26.2385 16.7498 26.857 16.9731 27.485 16.9731C28.1129 16.9731 28.7409 16.7404 29.3689 16.2752C29.9969 15.8099 30.3108 15.1213 30.3108 14.2094C30.3108 13.2974 30.0159 12.6181 29.426 12.1715C28.8361 11.7248 28.1986 11.5015 27.5135 11.5015C26.8284 11.5015 26.191 11.7341 25.601 12.1994C25.0111 12.6647 24.7162 13.3533 24.7162 14.2652C24.7162 15.1585 25.0206 15.8378 25.6296 16.3031Z" fill="white"/>
<path d="M43.8867 21.5793C41.9648 21.5793 40.3663 20.872 39.0913 19.4576C37.8354 18.0246 37.2074 16.2845 37.2074 14.2373V9.35194C37.2074 8.90528 37.2169 8.57959 37.2359 8.37488C37.274 8.17016 37.3596 7.92822 37.4928 7.64905C37.7593 7.14656 38.5014 6.89532 39.7193 6.89532C41.0514 6.89532 41.8316 7.24892 42.0599 7.95613C42.1741 8.2539 42.2312 8.72848 42.2312 9.37986V14.2652C42.2312 15.0282 42.45 15.6238 42.8877 16.0518C43.3444 16.4799 43.9438 16.6939 44.686 16.6939C45.4472 16.6939 46.0561 16.4706 46.5128 16.0239C46.9886 15.5773 47.2264 14.991 47.2264 14.2652V9.32403C47.2264 8.89598 47.2359 8.57959 47.255 8.37488C47.293 8.15155 47.3882 7.9003 47.5404 7.62114C47.7878 7.13725 48.5204 6.89532 49.7383 6.89532C50.9372 6.89532 51.6698 7.14656 51.9362 7.64905C52.0694 7.92822 52.1455 8.17946 52.1646 8.40279C52.2026 8.60751 52.2217 8.92389 52.2217 9.35194V19.2343C52.2217 19.6437 52.2026 19.9601 52.1646 20.1834C52.1455 20.3882 52.0599 20.6208 51.9077 20.8814C51.6222 21.3652 50.8896 21.6072 49.7098 21.6072C48.549 21.6072 47.8354 21.3838 47.569 20.9372C47.3787 20.6208 47.2835 20.2393 47.2835 19.7926C47.2074 19.9229 47.0361 20.109 46.7697 20.3509C46.5033 20.5929 46.2464 20.7976 45.999 20.9651C45.352 21.3745 44.6479 21.5793 43.8867 21.5793Z" fill="white"/>
<path d="M54.5179 25.6271V9.32403C54.5179 8.89598 54.5274 8.57959 54.5465 8.37488C54.5845 8.17016 54.6702 7.93752 54.8034 7.67697C55.0698 7.17448 55.7073 6.92323 56.7158 6.92323C57.7244 6.92323 58.3999 7.05351 58.7425 7.31406C59.104 7.556 59.3133 7.91891 59.3704 8.40279C60.0936 7.43503 61.2258 6.95115 62.7672 6.95115C64.3276 6.95115 65.8024 7.66766 67.1916 9.1007C68.5807 10.5337 69.2753 12.1994 69.2753 14.0977C69.2753 15.996 68.5807 17.6617 67.1916 19.0947C65.8214 20.5278 64.3562 21.2443 62.7957 21.2443C61.2353 21.2443 60.1031 20.8162 59.399 19.9601V25.5992C59.399 26.0273 59.38 26.3436 59.3419 26.5484C59.3229 26.7531 59.2372 26.9857 59.085 27.2463C58.9518 27.5254 58.7139 27.7208 58.3714 27.8325C58.0289 27.9442 57.5626 28 56.9727 28C56.3828 28 55.9071 27.9442 55.5455 27.8325C55.203 27.7208 54.9556 27.5347 54.8034 27.2742C54.6702 27.0136 54.5845 26.781 54.5465 26.5763C54.5274 26.3716 54.5179 26.0552 54.5179 25.6271ZM60.1697 12.4786C59.732 12.9811 59.5132 13.5301 59.5132 14.1256C59.5132 14.7212 59.732 15.2702 60.1697 15.7727C60.6264 16.2566 61.1973 16.4985 61.8823 16.4985C62.5864 16.4985 63.1763 16.2566 63.6521 15.7727C64.1468 15.2888 64.3942 14.7398 64.3942 14.1256C64.3942 13.5115 64.1659 12.9624 63.7092 12.4786C63.2525 11.9761 62.653 11.7248 61.9109 11.7248C61.1878 11.7248 60.6074 11.9761 60.1697 12.4786Z" fill="white"/>
<path d="M71.1316 2.45663C71.1316 2.02858 71.1411 1.7122 71.1601 1.50748C71.1982 1.28415 71.2838 1.0329 71.417 0.753739C71.6834 0.251246 72.4256 0 73.6435 0C74.8043 0 75.5274 0.251246 75.8128 0.753739C75.9651 1.0329 76.0507 1.28415 76.0697 1.50748C76.1078 1.73081 76.1268 2.0565 76.1268 2.48455V15.4098C76.1268 16.0798 76.1839 16.5078 76.2981 16.6939C76.4122 16.8614 76.6596 16.9452 77.0402 16.9452C77.4398 16.9452 77.7063 16.9638 77.8395 17.001C77.9727 17.0196 78.1344 17.0941 78.3247 17.2243C78.7053 17.4663 78.8956 18.127 78.8956 19.2064C78.8956 20.3789 78.7053 21.0954 78.3247 21.3559C77.8299 21.6909 76.6501 21.7468 74.7852 21.5234C73.32 21.3373 72.3685 20.8627 71.9308 20.0997C71.398 19.1878 71.1316 17.7361 71.1316 15.7448V2.45663Z" fill="white"/>
<path d="M80.0416 14.2931C80.0416 12.0598 80.8408 10.2173 82.4393 8.7657C84.0378 7.31406 85.8646 6.58823 87.9198 6.58823C89.975 6.58823 91.7923 7.31406 93.3718 8.7657C94.9512 10.1987 95.7409 12.0319 95.7409 14.2652C95.7409 15.8099 95.3318 17.1871 94.5135 18.3968C93.6953 19.5879 92.6962 20.4719 91.5164 21.0489C90.3556 21.6072 89.1472 21.8863 87.8913 21.8863C86.6353 21.8863 85.4174 21.5886 84.2376 20.993C83.0578 20.3789 82.0587 19.4855 81.2405 18.3131C80.4412 17.122 80.0416 15.782 80.0416 14.2931ZM86.0073 16.3031C86.6163 16.7498 87.2348 16.9731 87.8627 16.9731C88.4907 16.9731 89.1187 16.7404 89.7466 16.2752C90.3746 15.8099 90.6886 15.1213 90.6886 14.2094C90.6886 13.2974 90.3936 12.6181 89.8037 12.1715C89.2138 11.7248 88.5763 11.5015 87.8913 11.5015C87.2062 11.5015 86.5687 11.7341 85.9788 12.1994C85.3889 12.6647 85.0939 13.3533 85.0939 14.2652C85.0939 15.1585 85.3984 15.8378 86.0073 16.3031Z" fill="white"/>
<path d="M107.119 19.7926C106.396 20.7232 105.245 21.1884 103.665 21.1884C102.086 21.1884 100.601 20.4812 99.2122 19.0668C97.8421 17.6338 97.157 15.9681 97.157 14.0698C97.157 12.1715 97.8516 10.5058 99.2407 9.07278C100.63 7.63975 102.152 6.92323 103.808 6.92323C104.455 6.92323 105.045 7.0442 105.578 7.28614C106.11 7.50947 106.472 7.7235 106.662 7.92822C106.872 8.11432 107.033 8.29113 107.147 8.45862C107.205 7.93752 107.395 7.54669 107.718 7.28614C108.061 7.00698 108.603 6.8674 109.345 6.8674C110.088 6.8674 110.63 6.92323 110.972 7.0349C111.315 7.14656 111.553 7.34197 111.686 7.62114C111.838 7.88169 111.924 8.11432 111.943 8.31904C111.981 8.52376 112 8.84015 112 9.2682V20.8255C112 22.9658 111.239 24.6873 109.716 25.99C108.194 27.3114 106.481 27.9721 104.579 27.9721C103.132 27.9721 101.753 27.6278 100.44 26.9392C99.1265 26.2506 98.47 25.6271 98.47 25.0688C98.47 24.343 98.7555 23.7009 99.3264 23.1426C99.6879 22.7517 99.9638 22.4819 100.154 22.333C100.363 22.1841 100.601 22.1097 100.868 22.1097C101.134 22.1097 101.41 22.2213 101.696 22.4447C102.609 23.1333 103.598 23.4776 104.664 23.4776C105.387 23.4776 105.977 23.1984 106.434 22.6401C106.891 22.0818 107.119 21.4118 107.119 20.6301V19.7926ZM102.038 14.0977C102.038 14.6933 102.276 15.233 102.752 15.7168C103.246 16.2007 103.836 16.4427 104.521 16.4427C105.226 16.4427 105.806 16.2007 106.263 15.7168C106.719 15.2144 106.948 14.6746 106.948 14.0977C106.948 13.5022 106.729 12.9531 106.291 12.4506C105.853 11.9295 105.264 11.669 104.521 11.669C103.779 11.669 103.18 11.9202 102.723 12.4227C102.266 12.9252 102.038 13.4835 102.038 14.0977Z" fill="white"/>
</svg>
