<svg width="20" height="18" viewBox="0 0 14 12" fill="none" xmlns="http://www.w3.org/2000/svg">
<path d="M13.125 4.14062C13.125 7.96875 7.44898 11.0673 7.20727 11.1953C7.14356 11.2296 7.07234 11.2475 7 11.2475C6.92766 11.2475 6.85644 11.2296 6.79273 11.1953C6.55102 11.0673 0.875 7.96875 0.875 4.14062C0.876013 3.24169 1.23356 2.37986 1.86921 1.74421C2.50486 1.10856 3.36669 0.751013 4.26562 0.75C5.39492 0.75 6.38367 1.23562 7 2.05648C7.61633 1.23562 8.60508 0.75 9.73438 0.75C10.6333 0.751013 11.4951 1.10856 12.1308 1.74421C12.7664 2.37986 13.124 3.24169 13.125 4.14062Z" fill="#FFFFFF"/>
</svg>
