<svg width="50" height="50" viewBox="0 0 50 50" fill="none" xmlns="http://www.w3.org/2000/svg">
<rect x="0.5" y="0.5" width="49" height="49" rx="15.5" fill="white" fill-opacity="0.3" stroke="white"/>
<path fill-rule="evenodd" clip-rule="evenodd" d="M29.3334 19.3125C28.9742 19.3125 28.6298 19.4552 28.3758 19.7091C28.1219 19.9631 27.9792 20.3075 27.9792 20.6667C27.9792 21.0258 28.1219 21.3703 28.3758 21.6242C28.6298 21.8782 28.9742 22.0208 29.3334 22.0208C29.6925 22.0208 30.0369 21.8782 30.2909 21.6242C30.5448 21.3703 30.6875 21.0258 30.6875 20.6667C30.6875 20.3075 30.5448 19.9631 30.2909 19.7091C30.0369 19.4552 29.6925 19.3125 29.3334 19.3125ZM26.3542 20.6667C26.3542 19.8765 26.6681 19.1188 27.2268 18.5601C27.7855 18.0014 28.5432 17.6875 29.3334 17.6875C30.1235 17.6875 30.8812 18.0014 31.4399 18.5601C31.9986 19.1188 32.3125 19.8765 32.3125 20.6667C32.3125 21.4568 31.9986 22.2146 31.4399 22.7733C30.8812 23.332 30.1235 23.6458 29.3334 23.6458C28.5432 23.6458 27.7855 23.332 27.2268 22.7733C26.6681 22.2146 26.3542 21.4568 26.3542 20.6667Z" fill="white"/>
<path fill-rule="evenodd" clip-rule="evenodd" d="M24.9383 13.3542H25.0618C27.5632 13.3542 29.5229 13.3542 31.0526 13.5601C32.6169 13.7702 33.8519 14.2101 34.8215 15.1786C35.7911 16.1482 36.2299 17.3832 36.44 18.9486C36.6459 20.4772 36.6459 22.4369 36.6459 24.9383V25.0618C36.6459 27.5632 36.6459 29.523 36.44 31.0527C36.2299 32.617 35.79 33.852 34.8215 34.8216C33.8519 35.7912 32.6169 36.2299 31.0515 36.4401C29.5229 36.6459 27.5632 36.6459 25.0618 36.6459H24.9383C22.4369 36.6459 20.4771 36.6459 18.9474 36.4401C17.3831 36.2299 16.1481 35.7901 15.1785 34.8216C14.2089 33.852 13.7702 32.617 13.56 31.0516C13.3542 29.523 13.3542 27.5632 13.3542 25.0618V24.9383C13.3542 22.4369 13.3542 20.4772 13.56 18.9475C13.7702 17.3832 14.21 16.1482 15.1785 15.1786C16.1481 14.209 17.3831 13.7702 18.9485 13.5601C20.4771 13.3542 22.4369 13.3542 24.9383 13.3542ZM16.3279 33.6722C15.7104 33.0547 15.3562 32.2205 15.1699 30.8349C15.0041 29.5988 14.9824 28.0215 14.9792 25.9101L16.5988 24.4931C16.9193 24.2124 17.3346 24.0641 17.7605 24.0781C18.1863 24.0922 18.5909 24.2677 18.8922 24.5689L23.5397 29.2164C24.0355 29.7125 24.6905 30.0177 25.3892 30.0783C26.0879 30.139 26.7857 29.9511 27.3595 29.5479L27.6824 29.3204C28.1338 29.0031 28.6795 28.8482 29.2303 28.8813C29.7811 28.9144 30.3044 29.1333 30.7146 29.5024L34.2062 32.6462C34.2438 32.6794 34.284 32.7095 34.3264 32.7362C34.1645 33.0839 33.9431 33.4007 33.6721 33.6722C33.0546 34.2897 32.2204 34.6439 30.8349 34.8302C29.4265 35.0187 27.5762 35.0209 25 35.0209C22.4239 35.0209 20.5735 35.0187 19.1652 34.8302C17.7796 34.6439 16.9454 34.2886 16.3279 33.6722ZM19.1652 15.1699C17.7796 15.3562 16.9444 15.7116 16.3269 16.328C15.7104 16.9455 15.3562 17.7797 15.1699 19.1652C15.0128 20.3352 14.9857 21.8086 14.9803 23.751L15.5295 23.27C16.1604 22.7181 16.9775 22.4266 17.8153 22.4545C18.6531 22.4825 19.4489 22.8278 20.0416 23.4206L24.6891 28.0681C24.9146 28.2932 25.2122 28.4316 25.5296 28.4589C25.8471 28.4863 26.164 28.4008 26.4246 28.2176L26.7474 27.9901C27.4999 27.4613 28.4095 27.2035 29.3275 27.2588C30.2456 27.3141 31.1176 27.6792 31.8012 28.2945L34.8064 30.9996L34.8302 30.8349C35.0187 29.4266 35.0209 27.5762 35.0209 25.0001C35.0209 22.4239 35.0187 20.5736 34.8302 19.1652C34.6439 17.7797 34.2885 16.9444 33.6721 16.3269C33.0546 15.7105 32.2204 15.3562 30.8349 15.1699C29.4265 14.9814 27.5762 14.9792 25 14.9792C22.4239 14.9792 20.5735 14.9814 19.1652 15.1699Z" fill="white"/>
</svg>
