<svg width="24" height="24" viewBox="0 0 24 24" fill="none" xmlns="http://www.w3.org/2000/svg">
<path fill-rule="evenodd" clip-rule="evenodd" d="M16.4652 6.13951C16.0951 6.13951 15.7402 6.28652 15.4785 6.54819C15.2168 6.80987 15.0698 7.16479 15.0698 7.53485C15.0698 7.90492 15.2168 8.25984 15.4785 8.52152C15.7402 8.78319 16.0951 8.9302 16.4652 8.9302C16.8352 8.9302 17.1901 8.78319 17.4518 8.52152C17.7135 8.25984 17.8605 7.90492 17.8605 7.53485C17.8605 7.16479 17.7135 6.80987 17.4518 6.54819C17.1901 6.28652 16.8352 6.13951 16.4652 6.13951ZM13.3954 7.53485C13.3954 6.7207 13.7188 5.93989 14.2945 5.3642C14.8702 4.78851 15.651 4.46509 16.4652 4.46509C17.2793 4.46509 18.0601 4.78851 18.6358 5.3642C19.2115 5.93989 19.5349 6.7207 19.5349 7.53485C19.5349 8.34901 19.2115 9.12982 18.6358 9.70551C18.0601 10.2812 17.2793 10.6046 16.4652 10.6046C15.651 10.6046 14.8702 10.2812 14.2945 9.70551C13.7188 9.12982 13.3954 8.34901 13.3954 7.53485Z" fill="#707070"/>
<path fill-rule="evenodd" clip-rule="evenodd" d="M11.9364 0H12.0636C14.6411 0 16.6605 6.65354e-08 18.2367 0.212093C19.8486 0.428651 21.1211 0.881861 22.1202 1.87981C23.1193 2.87888 23.5714 4.15144 23.7879 5.76447C24 7.33954 24 9.35888 24 11.9364V12.0636C24 14.6411 24 16.6605 23.7879 18.2367C23.5714 19.8486 23.1181 21.1211 22.1202 22.1202C21.1211 23.1193 19.8486 23.5714 18.2355 23.7879C16.6605 24 14.6411 24 12.0636 24H11.9364C9.35888 24 7.33954 24 5.76335 23.7879C4.15144 23.5714 2.87888 23.1181 1.87981 22.1202C0.880744 21.1211 0.428651 19.8486 0.212093 18.2355C6.65354e-08 16.6605 0 14.6411 0 12.0636V11.9364C0 9.35888 6.65354e-08 7.33954 0.212093 5.76335C0.428651 4.15144 0.881861 2.87888 1.87981 1.87981C2.87888 0.880744 4.15144 0.428651 5.76447 0.212093C7.33954 6.65354e-08 9.35888 0 11.9364 0ZM3.06419 20.9358C2.42791 20.2995 2.06288 19.44 1.87088 18.0123C1.70009 16.7386 1.67777 15.1133 1.67442 12.9377L3.34326 11.4776C3.67356 11.1884 4.10147 11.0355 4.54027 11.05C4.97907 11.0645 5.39594 11.2453 5.70642 11.5557L10.4953 16.3446C11.0062 16.8557 11.681 17.1702 12.401 17.2327C13.121 17.2952 13.8399 17.1016 14.4313 16.6861L14.7639 16.4517C15.229 16.1247 15.7914 15.9652 16.3589 15.9993C16.9265 16.0333 17.4657 16.259 17.8884 16.6393L21.4861 19.8787C21.5249 19.9128 21.5663 19.9438 21.61 19.9713C21.4432 20.3297 21.215 20.656 20.9358 20.9358C20.2995 21.5721 19.44 21.9371 18.0123 22.1291C16.5611 22.3233 14.6545 22.3256 12 22.3256C9.34549 22.3256 7.43888 22.3233 5.98772 22.1291C4.56 21.9371 3.70047 21.571 3.06419 20.9358ZM5.98772 1.87088C4.56 2.06288 3.69935 2.42902 3.06307 3.06419C2.42791 3.70047 2.06288 4.56 1.87088 5.98772C1.70902 7.1933 1.68112 8.71144 1.67553 10.7129L2.24149 10.2173C2.89157 9.64859 3.73351 9.34822 4.59677 9.37703C5.46003 9.40584 6.28007 9.76168 6.89079 10.3725L11.6796 15.1613C11.912 15.3932 12.2186 15.5358 12.5457 15.564C12.8728 15.5922 13.1993 15.5041 13.4679 15.3153L13.8006 15.0809C14.5759 14.5361 15.5132 14.2704 16.4591 14.3274C17.4051 14.3843 18.3037 14.7606 19.008 15.3946L22.1046 18.182L22.1291 18.0123C22.3233 16.5611 22.3256 14.6545 22.3256 12C22.3256 9.34549 22.3233 7.43888 22.1291 5.98772C21.9371 4.56 21.571 3.69935 20.9358 3.06307C20.2995 2.42791 19.44 2.06288 18.0123 1.87088C16.5611 1.67665 14.6545 1.67442 12 1.67442C9.34549 1.67442 7.43888 1.67665 5.98772 1.87088Z" fill="#707070"/>
</svg>
