<svg width="28" height="25" viewBox="0 0 28 25" fill="none" xmlns="http://www.w3.org/2000/svg">
<path d="M11.0895 14.7444H10.2395V15.5944V22.7555C10.2395 23.0619 9.97787 23.3377 9.6359 23.3377H5.27505C4.93307 23.3377 4.67143 23.0619 4.67143 22.7555V12.7299V11.8799H3.82143H1.70489L13.5849 1.33681C13.5852 1.33659 13.5854 1.33636 13.5857 1.33613C13.8166 1.13327 14.1769 1.13327 14.4078 1.33613C14.4081 1.33636 14.4083 1.33659 14.4086 1.33681L26.2886 11.8799H24.1721H23.3221V12.7299V22.7555C23.3221 23.0619 23.0604 23.3377 22.7185 23.3377H18.3576C18.0156 23.3377 17.754 23.0619 17.754 22.7555V15.5944V14.7444H16.904H11.0895Z" stroke="white" stroke-width="1.7"/>
</svg>
