<svg width="24" height="24" viewBox="0 0 24 24" fill="none" xmlns="http://www.w3.org/2000/svg">
<path d="M12 15.25C13.7949 15.25 15.25 13.7949 15.25 12C15.25 10.2051 13.7949 8.75 12 8.75C10.2051 8.75 8.75 10.2051 8.75 12C8.75 13.7949 10.2051 15.25 12 15.25Z" stroke="white" stroke-width="1.8"/>
<path d="M13.9121 1.33141C13.5145 1.16675 13.0097 1.16675 12 1.16675C10.9903 1.16675 10.4855 1.16675 10.0879 1.33141C9.82486 1.4403 9.58585 1.59997 9.38453 1.80128C9.18322 2.0026 9.02356 2.24161 8.91467 2.50466C8.815 2.74625 8.77492 3.029 8.75975 3.43958C8.753 3.7364 8.67092 4.02664 8.52121 4.28303C8.37151 4.53943 8.15909 4.75356 7.90392 4.90533C7.64489 5.05054 7.3532 5.12752 7.05624 5.12904C6.75929 5.13056 6.46683 5.05656 6.20633 4.914C5.84233 4.72116 5.57908 4.615 5.318 4.58033C4.74851 4.50544 4.17259 4.65975 3.71683 5.00933C3.37667 5.27258 3.12317 5.70916 2.61833 6.58341C2.1135 7.45766 1.86 7.89425 1.80475 8.32216C1.76752 8.60432 1.78625 8.89105 1.85986 9.16597C1.93346 9.44089 2.06051 9.69861 2.23375 9.92441C2.39408 10.1324 2.61833 10.3068 2.96608 10.5257C3.4785 10.8474 3.80783 11.3956 3.80783 12.0001C3.80783 12.6046 3.4785 13.1527 2.96608 13.4734C2.61833 13.6933 2.393 13.8677 2.23375 14.0757C2.06051 14.3016 1.93346 14.5593 1.85986 14.8342C1.78625 15.1091 1.76752 15.3958 1.80475 15.678C1.86108 16.1048 2.1135 16.5425 2.61725 17.4167C3.12317 18.291 3.37558 18.7276 3.71683 18.9908C3.94264 19.1641 4.20036 19.2911 4.47528 19.3647C4.7502 19.4383 5.03693 19.4571 5.31908 19.4198C5.57908 19.3852 5.84233 19.279 6.20633 19.0862C6.46683 18.9436 6.75929 18.8696 7.05624 18.8711C7.3532 18.8726 7.64489 18.9496 7.90392 19.0948C8.42717 19.3982 8.73808 19.9561 8.75975 20.5606C8.77492 20.9722 8.81392 21.2539 8.91467 21.4955C9.02356 21.7586 9.18322 21.9976 9.38453 22.1989C9.58585 22.4002 9.82486 22.5599 10.0879 22.6687C10.4855 22.8334 10.9903 22.8334 12 22.8334C13.0097 22.8334 13.5145 22.8334 13.9121 22.6687C14.1751 22.5599 14.4142 22.4002 14.6155 22.1989C14.8168 21.9976 14.9764 21.7586 15.0853 21.4955C15.185 21.2539 15.2251 20.9722 15.2402 20.5606C15.2619 19.9561 15.5728 19.3971 16.0961 19.0948C16.3551 18.9496 16.6468 18.8726 16.9438 18.8711C17.2407 18.8696 17.5332 18.9436 17.7937 19.0862C18.1577 19.279 18.4209 19.3852 18.6809 19.4198C18.9631 19.4571 19.2498 19.4383 19.5247 19.3647C19.7996 19.2911 20.0574 19.1641 20.2832 18.9908C20.6244 18.7287 20.8768 18.291 21.3817 17.4167C21.8865 16.5425 22.14 16.1059 22.1952 15.678C22.2325 15.3958 22.2138 15.1091 22.1401 14.8342C22.0665 14.5593 21.9395 14.3016 21.7662 14.0757C21.6059 13.8677 21.3817 13.6933 21.0339 13.4745C20.7801 13.3202 20.5697 13.104 20.4225 12.8461C20.2752 12.5882 20.196 12.297 20.1922 12.0001C20.1922 11.3956 20.5215 10.8474 21.0339 10.5267C21.3817 10.3068 21.607 10.1324 21.7662 9.92441C21.9395 9.69861 22.0665 9.44089 22.1401 9.16597C22.2138 8.89105 22.2325 8.60432 22.1952 8.32216C22.1389 7.89533 21.8865 7.45766 21.3827 6.58341C20.8768 5.70916 20.6244 5.27258 20.2832 5.00933C20.0574 4.8361 19.7996 4.70905 19.5247 4.63544C19.2498 4.56183 18.9631 4.5431 18.6809 4.58033C18.4209 4.615 18.1577 4.72116 17.7926 4.914C17.5322 5.05636 17.24 5.13026 16.9432 5.12874C16.6465 5.12722 16.355 5.05035 16.0961 4.90533C15.8409 4.75356 15.6285 4.53943 15.4788 4.28303C15.3291 4.02664 15.247 3.7364 15.2402 3.43958C15.2251 3.02791 15.1861 2.74625 15.0853 2.50466C14.9764 2.24161 14.8168 2.0026 14.6155 1.80128C14.4142 1.59997 14.1751 1.4403 13.9121 1.33141Z" stroke="white" stroke-width="1.8"/>
</svg>
