<svg width="23" height="26" viewBox="0 0 23 26" fill="none" xmlns="http://www.w3.org/2000/svg">
<path d="M0.958496 9.16675H22.0418" stroke="#FC887B" stroke-width="1.6"/>
<rect x="0.958496" y="3.41675" width="21.0833" height="21.0833" rx="4.5" stroke="#FC887B" stroke-width="1.7"/>
<path d="M11.3763 12.4151C11.4359 12.3281 11.5641 12.3281 11.6237 12.4151L12.3249 11.9345L11.6237 12.4151L12.6257 13.877C12.8662 14.228 13.2205 14.4854 13.6286 14.6057L15.3287 15.1069C15.4297 15.1367 15.4694 15.2587 15.4051 15.3422L14.3243 16.7469C14.0648 17.0841 13.9295 17.5005 13.9412 17.9259L13.99 19.6976C13.9929 19.803 13.8891 19.8784 13.7898 19.8431L12.1198 19.2492C11.7189 19.1067 11.2811 19.1067 10.8802 19.2492L9.21023 19.8431C9.11093 19.8784 9.00713 19.803 9.01003 19.6976L9.05876 17.9259C9.07046 17.5005 8.93516 17.0841 8.67568 16.7469L7.59487 15.3422L6.9212 15.8605L7.59487 15.3422C7.5306 15.2587 7.57025 15.1367 7.67134 15.1069L9.37139 14.6057C9.77955 14.4854 10.1338 14.228 10.3743 13.877L11.3763 12.4151Z" stroke="#FC887B" stroke-width="1.7"/>
<path d="M6.7085 1.5V5.33333" stroke="#FC887B" stroke-width="1.6" stroke-linecap="round"/>
<path d="M16.2915 1.5V5.33333" stroke="#FC887B" stroke-width="1.6" stroke-linecap="round"/>
</svg>
