<svg width="40" height="40" viewBox="0 0 40 40" fill="none" xmlns="http://www.w3.org/2000/svg">
<path d="M20 23.25C21.7949 23.25 23.25 21.7949 23.25 20C23.25 18.2051 21.7949 16.75 20 16.75C18.2051 16.75 16.75 18.2051 16.75 20C16.75 21.7949 18.2051 23.25 20 23.25Z" stroke="white" stroke-width="1.8"/>
<path d="M21.9121 9.33141C21.5145 9.16675 21.0097 9.16675 20 9.16675C18.9903 9.16675 18.4855 9.16675 18.0879 9.33141C17.8249 9.4403 17.5858 9.59997 17.3845 9.80128C17.1832 10.0026 17.0236 10.2416 16.9147 10.5047C16.815 10.7462 16.7749 11.029 16.7597 11.4396C16.753 11.7364 16.6709 12.0266 16.5212 12.283C16.3715 12.5394 16.1591 12.7536 15.9039 12.9053C15.6449 13.0505 15.3532 13.1275 15.0562 13.129C14.7593 13.1306 14.4668 13.0566 14.2063 12.914C13.8423 12.7212 13.5791 12.615 13.318 12.5803C12.7485 12.5054 12.1726 12.6597 11.7168 13.0093C11.3767 13.2726 11.1232 13.7092 10.6183 14.5834C10.1135 15.4577 9.86 15.8942 9.80475 16.3222C9.76752 16.6043 9.78625 16.891 9.85986 17.166C9.93346 17.4409 10.0605 17.6986 10.2337 17.9244C10.3941 18.1324 10.6183 18.3068 10.9661 18.5257C11.4785 18.8474 11.8078 19.3956 11.8078 20.0001C11.8078 20.6046 11.4785 21.1527 10.9661 21.4734C10.6183 21.6933 10.393 21.8677 10.2337 22.0757C10.0605 22.3016 9.93346 22.5593 9.85986 22.8342C9.78625 23.1091 9.76752 23.3958 9.80475 23.678C9.86108 24.1048 10.1135 24.5425 10.6172 25.4167C11.1232 26.291 11.3756 26.7276 11.7168 26.9908C11.9426 27.1641 12.2004 27.2911 12.4753 27.3647C12.7502 27.4383 13.0369 27.4571 13.3191 27.4198C13.5791 27.3852 13.8423 27.279 14.2063 27.0862C14.4668 26.9436 14.7593 26.8696 15.0562 26.8711C15.3532 26.8726 15.6449 26.9496 15.9039 27.0948C16.4272 27.3982 16.7381 27.9561 16.7597 28.5606C16.7749 28.9722 16.8139 29.2539 16.9147 29.4955C17.0236 29.7586 17.1832 29.9976 17.3845 30.1989C17.5858 30.4002 17.8249 30.5599 18.0879 30.6687C18.4855 30.8334 18.9903 30.8334 20 30.8334C21.0097 30.8334 21.5145 30.8334 21.9121 30.6687C22.1751 30.5599 22.4142 30.4002 22.6155 30.1989C22.8168 29.9976 22.9764 29.7586 23.0853 29.4955C23.185 29.2539 23.2251 28.9722 23.2402 28.5606C23.2619 27.9561 23.5728 27.3971 24.0961 27.0948C24.3551 26.9496 24.6468 26.8726 24.9438 26.8711C25.2407 26.8696 25.5332 26.9436 25.7937 27.0862C26.1577 27.279 26.4209 27.3852 26.6809 27.4198C26.9631 27.4571 27.2498 27.4383 27.5247 27.3647C27.7996 27.2911 28.0574 27.1641 28.2832 26.9908C28.6244 26.7287 28.8768 26.291 29.3817 25.4167C29.8865 24.5425 30.14 24.1059 30.1952 23.678C30.2325 23.3958 30.2138 23.1091 30.1401 22.8342C30.0665 22.5593 29.9395 22.3016 29.7662 22.0757C29.6059 21.8677 29.3817 21.6933 29.0339 21.4745C28.7801 21.3202 28.5697 21.104 28.4225 20.8461C28.2752 20.5882 28.196 20.297 28.1922 20.0001C28.1922 19.3956 28.5215 18.8474 29.0339 18.5267C29.3817 18.3068 29.607 18.1324 29.7662 17.9244C29.9395 17.6986 30.0665 17.4409 30.1401 17.166C30.2138 16.891 30.2325 16.6043 30.1952 16.3222C30.1389 15.8953 29.8865 15.4577 29.3827 14.5834C28.8768 13.7092 28.6244 13.2726 28.2832 13.0093C28.0574 12.8361 27.7996 12.709 27.5247 12.6354C27.2498 12.5618 26.9631 12.5431 26.6809 12.5803C26.4209 12.615 26.1577 12.7212 25.7926 12.914C25.5322 13.0564 25.24 13.1303 24.9432 13.1287C24.6465 13.1272 24.355 13.0504 24.0961 12.9053C23.8409 12.7536 23.6285 12.5394 23.4788 12.283C23.3291 12.0266 23.247 11.7364 23.2402 11.4396C23.2251 11.0279 23.1861 10.7462 23.0853 10.5047C22.9764 10.2416 22.8168 10.0026 22.6155 9.80128C22.4142 9.59997 22.1751 9.4403 21.9121 9.33141Z" stroke="white" stroke-width="1.8"/>
</svg>
