<svg width="24" height="24" viewBox="0 0 24 24" fill="none" xmlns="http://www.w3.org/2000/svg">
<path fill-rule="evenodd" clip-rule="evenodd" d="M12 7.93758C10.9225 7.93758 9.8892 8.36559 9.12734 9.12746C8.36547 9.88933 7.93746 10.9226 7.93746 12.0001C7.93746 13.0775 8.36547 14.1108 9.12734 14.8727C9.8892 15.6346 10.9225 16.0626 12 16.0626C13.0774 16.0626 14.1107 15.6346 14.8726 14.8727C15.6344 14.1108 16.0625 13.0775 16.0625 12.0001C16.0625 10.9226 15.6344 9.88933 14.8726 9.12746C14.1107 8.36559 13.0774 7.93758 12 7.93758ZM9.56246 12.0001C9.56246 11.3536 9.81927 10.7336 10.2764 10.2765C10.7335 9.81939 11.3535 9.56258 12 9.56258C12.6464 9.56258 13.2664 9.81939 13.7235 10.2765C14.1807 10.7336 14.4375 11.3536 14.4375 12.0001C14.4375 12.6465 14.1807 13.2665 13.7235 13.7237C13.2664 14.1808 12.6464 14.4376 12 14.4376C11.3535 14.4376 10.7335 14.1808 10.2764 13.7237C9.81927 13.2665 9.56246 12.6465 9.56246 12.0001Z" fill="#4E4E4E"/>
<path fill-rule="evenodd" clip-rule="evenodd" d="M11.9729 0.354248C11.4908 0.354248 11.0889 0.354248 10.7595 0.375915C10.4229 0.389933 10.0909 0.459481 9.77696 0.581748C9.4154 0.731345 9.08685 0.950702 8.81007 1.22729C8.53329 1.50388 8.31371 1.83229 8.16387 2.19375C8.00679 2.57291 7.96454 2.97375 7.94721 3.40925C7.94547 3.56852 7.90331 3.72474 7.82467 3.86326C7.74604 4.00178 7.6335 4.11805 7.49762 4.20116C7.35775 4.27754 7.20075 4.31712 7.04138 4.31617C6.88201 4.31522 6.7255 4.27378 6.58654 4.19575C6.20088 3.99208 5.83254 3.8285 5.42521 3.77433C5.03732 3.72331 4.64317 3.74919 4.26528 3.85049C3.88739 3.9518 3.53315 4.12654 3.22279 4.36475C2.96038 4.57587 2.73455 4.82878 2.55438 5.11333C2.37021 5.3885 2.16871 5.73625 1.92821 6.15333L1.90113 6.201C1.65954 6.61808 1.45913 6.96583 1.31396 7.26266C1.16229 7.5725 1.04313 7.878 0.999793 8.216C0.896443 8.99924 1.10843 9.79146 1.58913 10.4184C1.83938 10.7445 2.16546 10.9817 2.53379 11.2136C2.67112 11.2948 2.78553 11.4096 2.86626 11.5471C2.947 11.6847 2.9914 11.8406 2.99529 12.0001C2.9914 12.1596 2.947 12.3154 2.86626 12.453C2.78553 12.5906 2.67112 12.7054 2.53379 12.7866C2.16546 13.0184 1.84046 13.2557 1.58913 13.5817C1.35092 13.8921 1.17617 14.2463 1.07487 14.6242C0.973567 15.0021 0.947687 15.3963 0.99871 15.7842C1.04313 16.1222 1.16121 16.4277 1.31288 16.7375C1.45913 17.0343 1.65954 17.3821 1.90113 17.7992L1.92821 17.8468C2.16871 18.2639 2.37021 18.6117 2.55438 18.8868C2.74613 19.1717 2.95196 19.4285 3.22279 19.6343C3.53307 19.8727 3.88727 20.0477 4.26516 20.1492C4.64306 20.2506 5.03724 20.2767 5.42521 20.2258C5.83254 20.1717 6.20088 20.0092 6.58654 19.8044C6.72534 19.7265 6.88166 19.6851 7.04084 19.6841C7.20002 19.6832 7.35683 19.7227 7.49654 19.799C7.63317 19.8815 7.74641 19.9975 7.82549 20.1362C7.90457 20.2748 7.94684 20.4313 7.94829 20.5909C7.96454 21.0264 8.00679 21.4272 8.16496 21.8064C8.31456 22.168 8.53391 22.4965 8.8105 22.7733C9.08709 23.0501 9.4155 23.2697 9.77696 23.4195C10.0911 23.5495 10.4161 23.6004 10.7595 23.6232C11.0889 23.6459 11.4908 23.6459 11.9729 23.6459H12.027C12.5091 23.6459 12.911 23.6459 13.2404 23.6242C13.5849 23.6004 13.9088 23.5495 14.223 23.4184C14.5845 23.2688 14.9131 23.0495 15.1898 22.7729C15.4666 22.4963 15.6862 22.1679 15.836 21.8064C15.9931 21.4272 16.0354 21.0264 16.0527 20.5909C16.0543 20.4315 16.0963 20.275 16.175 20.1363C16.2536 19.9976 16.3663 19.8811 16.5023 19.7979C16.6423 19.7217 16.7993 19.6823 16.9587 19.6834C17.118 19.6846 17.2745 19.7262 17.4134 19.8044C17.799 20.0081 18.1674 20.1717 18.5747 20.2247C19.3579 20.3281 20.1502 20.1161 20.7771 19.6354C21.048 19.4274 21.2538 19.1717 21.4455 18.8868C21.6297 18.6117 21.8312 18.2639 22.0717 17.8468L22.0988 17.7992C22.3404 17.3821 22.5408 17.0343 22.686 16.7375C22.8376 16.4277 22.9568 16.1211 23.0001 15.7842C23.1035 15.0009 22.8915 14.2087 22.4108 13.5817C22.1605 13.2557 21.8345 13.0184 21.4661 12.7866C21.3288 12.7054 21.2144 12.5906 21.1337 12.453C21.0529 12.3154 21.0085 12.1596 21.0046 12.0001C21.0046 11.6989 21.1693 11.3999 21.4661 11.2136C21.8345 10.9817 22.1595 10.7445 22.4108 10.4184C22.649 10.1081 22.8237 9.75382 22.925 9.37593C23.0264 8.99804 23.0522 8.60389 23.0012 8.216C22.9496 7.8831 22.8435 7.56099 22.687 7.26266C22.5021 6.90272 22.3059 6.54866 22.0988 6.201L22.0717 6.15333C21.8738 5.80026 21.665 5.45343 21.4455 5.11333C21.2654 4.82909 21.0395 4.57652 20.7771 4.36583C20.4668 4.12744 20.1126 3.9525 19.7348 3.85101C19.3569 3.74951 18.9627 3.72346 18.5747 3.77433C18.1674 3.8285 17.799 3.991 17.4134 4.19575C17.2745 4.27359 17.1182 4.31492 16.9591 4.31587C16.7999 4.31682 16.6431 4.27735 16.5034 4.20116C16.3671 4.11831 16.2541 4.00215 16.1751 3.86362C16.0961 3.72508 16.0536 3.56873 16.0516 3.40925C16.0354 2.97375 15.9931 2.57291 15.835 2.19375C15.6854 1.83219 15.466 1.50363 15.1894 1.22686C14.9128 0.950083 14.5844 0.730505 14.223 0.580665C13.9088 0.450665 13.5838 0.399748 13.2404 0.376998C12.911 0.354248 12.5091 0.354248 12.027 0.354248H11.9729ZM10.3988 2.08216C10.4822 2.0475 10.609 2.01608 10.87 1.99766C11.1376 1.97925 11.4843 1.97925 12 1.97925C12.5156 1.97925 12.8623 1.97925 13.1299 1.99766C13.391 2.01608 13.5177 2.0475 13.6011 2.08216C13.9337 2.21975 14.197 2.483 14.3345 2.81558C14.3779 2.91958 14.4136 3.08316 14.4277 3.46991C14.4602 4.32791 14.9033 5.1545 15.6898 5.60841C16.4763 6.06341 17.4134 6.03308 18.1728 5.63225C18.5151 5.45133 18.6744 5.40041 18.787 5.38633C19.143 5.3393 19.503 5.43555 19.788 5.65391C19.8595 5.70917 19.9505 5.80341 20.0968 6.02008C20.2474 6.24325 20.4207 6.54333 20.6785 6.98966C20.9364 7.436 21.1086 7.73716 21.2267 7.97766C21.3426 8.21275 21.3784 8.33841 21.3892 8.42833C21.4362 8.78428 21.34 9.14433 21.1216 9.42933C21.0523 9.51925 20.9288 9.63191 20.6016 9.83775C19.8736 10.2949 19.3796 11.0922 19.3796 12.0001C19.3796 12.9079 19.8736 13.7052 20.6016 14.1624C20.9288 14.3682 21.0523 14.4809 21.1216 14.5708C21.3405 14.8557 21.4358 15.2154 21.3892 15.5718C21.3784 15.6617 21.3415 15.7885 21.2267 16.0225C21.1086 16.2641 20.9364 16.5642 20.6785 17.0105C20.4207 17.4568 20.2463 17.7569 20.0968 17.9801C19.9505 18.1967 19.8595 18.291 19.788 18.3462C19.503 18.5646 19.143 18.6609 18.787 18.6138C18.6744 18.5997 18.5162 18.5488 18.1728 18.3679C17.4145 17.9671 16.4763 17.9367 15.6898 18.3907C14.9033 18.8457 14.4602 19.6722 14.4277 20.5302C14.4136 20.917 14.3779 21.0806 14.3345 21.1846C14.2665 21.349 14.1667 21.4984 14.0408 21.6243C13.915 21.7501 13.7656 21.8499 13.6011 21.918C13.5177 21.9527 13.391 21.9841 13.1299 22.0025C12.8623 22.0209 12.5156 22.0209 12 22.0209C11.4843 22.0209 11.1376 22.0209 10.87 22.0025C10.609 21.9841 10.4822 21.9527 10.3988 21.918C10.2343 21.8499 10.0849 21.7501 9.95908 21.6243C9.83324 21.4984 9.73343 21.349 9.66538 21.1846C9.62204 21.0806 9.58629 20.917 9.57221 20.5302C9.53971 19.6722 9.09663 18.8457 8.31013 18.3917C7.52363 17.9367 6.58654 17.9671 5.82713 18.3679C5.48479 18.5488 5.32554 18.5997 5.21288 18.6138C4.85693 18.6609 4.49688 18.5646 4.21188 18.3462C4.14038 18.291 4.04938 18.1967 3.90313 17.9801C3.69936 17.6629 3.50536 17.3396 3.32138 17.0105C3.06354 16.5642 2.89129 16.263 2.77321 16.0225C2.65729 15.7874 2.62154 15.6617 2.61071 15.5718C2.56368 15.2159 2.65992 14.8558 2.87829 14.5708C2.94763 14.4809 3.07113 14.3682 3.39829 14.1624C4.12629 13.7052 4.62029 12.9079 4.62029 12.0001C4.62029 11.0922 4.12629 10.2949 3.39829 9.83775C3.07113 9.63191 2.94763 9.51925 2.87829 9.42933C2.65992 9.14433 2.56368 8.78428 2.61071 8.42833C2.62154 8.33841 2.65838 8.21166 2.77321 7.97766C2.89129 7.73608 3.06354 7.436 3.32138 6.98966C3.57921 6.54333 3.75363 6.24325 3.90313 6.02008C4.04938 5.80341 4.14038 5.70917 4.21188 5.65391C4.49688 5.43555 4.85693 5.3393 5.21288 5.38633C5.32554 5.40041 5.48371 5.45133 5.82713 5.63225C6.58546 6.03308 7.52363 6.06341 8.31013 5.60841C9.09663 5.1545 9.53971 4.32791 9.57221 3.46991C9.58629 3.08316 9.62204 2.91958 9.66538 2.81558C9.80296 2.483 10.0662 2.21975 10.3988 2.08216Z" fill="#4E4E4E"/>
</svg>
