<svg width="19" height="17" viewBox="0 0 19 17" fill="none" xmlns="http://www.w3.org/2000/svg">
<path fill-rule="evenodd" clip-rule="evenodd" d="M13.2484 10.1523C13.3009 9.89421 13.3285 9.62707 13.3285 9.35352C13.3285 7.14438 11.5297 5.35352 9.31073 5.35352C9.03596 5.35352 8.76763 5.38098 8.50837 5.43329L9.4352 6.35603C11.0004 6.41934 12.2579 7.6713 12.3215 9.22959L13.2484 10.1523ZM6.69226 7.86785C6.44099 8.30586 6.29741 8.81299 6.29741 9.35352C6.29741 11.0104 7.64652 12.3535 9.31073 12.3535C9.85365 12.3535 10.363 12.2106 10.803 11.9604L11.5326 12.6868C10.8962 13.108 10.1322 13.3535 9.31073 13.3535C7.09178 13.3535 5.29297 11.5627 5.29297 9.35352C5.29297 8.53563 5.53953 7.77507 5.96269 7.14151L6.69226 7.86785Z" fill="#4D5053"/>
<path fill-rule="evenodd" clip-rule="evenodd" d="M13.4836 14.6286L12.7459 13.8942C11.6772 14.4731 10.5154 14.8535 9.31143 14.8535C7.63218 14.8535 6.0351 14.1134 4.65799 13.1271C3.28484 12.1435 2.17292 10.9453 1.4747 10.1013C1.04846 9.58613 1.00444 9.49702 1.00444 9.35352C1.00444 9.21001 1.04846 9.1209 1.4747 8.60568C2.14696 7.7931 3.20272 6.65215 4.5059 5.69056L3.7884 4.97622C2.45101 5.98424 1.3802 7.147 0.699392 7.96992L0.640326 8.04109C0.308332 8.44051 0 8.81145 0 9.35352C0 9.89558 0.308331 10.2665 0.640325 10.6659L0.699392 10.7371C1.42757 11.6173 2.6019 12.8862 4.07138 13.9388C5.5369 14.9885 7.33881 15.8535 9.31143 15.8535C10.8282 15.8535 12.244 15.3421 13.4836 14.6286ZM6.48887 3.42212C7.37265 3.0718 8.3205 2.85352 9.31143 2.85352C11.2841 2.85352 13.086 3.71852 14.5515 4.76823C16.021 5.82079 17.1953 7.08975 17.9235 7.96992L17.9825 8.04109C18.3145 8.44051 18.6229 8.81145 18.6229 9.35352C18.6229 9.89558 18.3145 10.2665 17.9825 10.6659L17.9235 10.7371C17.4409 11.3204 16.071 13 15.5688 13.1271L15.0666 12.5C15.5688 12 16.6778 10.6699 17.1482 10.1013C17.5744 9.58613 17.6184 9.49702 17.6184 9.35352C17.6184 9.21001 17.5744 9.1209 17.1482 8.60568C16.4499 7.76171 15.338 6.56353 13.9649 5.57998C12.5878 4.59358 10.9907 3.85352 9.31143 3.85352C8.61394 3.85352 7.93063 3.98119 7.27137 4.20117L6.48887 3.42212Z" fill="#4D5053"/>
<path fill-rule="evenodd" clip-rule="evenodd" d="M18.3198 17L2.92896 0.719503L3.60914 0L19 16.2805L18.3198 17Z" fill="#4D5053"/>
</svg>
