<svg width="19" height="17" viewBox="0 0 19 13" fill="none" xmlns="http://www.w3.org/2000/svg">
<path fill-rule="evenodd" clip-rule="evenodd" d="M9.49927 9.5C11.1972 9.5 12.5736 8.15685 12.5736 6.5C12.5736 4.84315 11.1972 3.5 9.49927 3.5C7.80136 3.5 6.42493 4.84315 6.42493 6.5C6.42493 8.15685 7.80136 9.5 9.49927 9.5ZM9.49927 10.5C11.7632 10.5 13.5984 8.70914 13.5984 6.5C13.5984 4.29086 11.7632 2.5 9.49927 2.5C7.23539 2.5 5.40015 4.29086 5.40015 6.5C5.40015 8.70914 7.23539 10.5 9.49927 10.5Z" fill="#3478F6"/>
<path fill-rule="evenodd" clip-rule="evenodd" d="M4.75232 2.72646C3.35137 3.71001 2.21693 4.9082 1.50457 5.75217C1.0697 6.26739 1.02478 6.3565 1.02478 6.5C1.02478 6.6435 1.0697 6.73261 1.50457 7.24783C2.21693 8.0918 3.35137 9.28999 4.75232 10.2735C6.15732 11.2599 7.78674 12 9.5 12C11.2133 12 12.8427 11.2599 14.2477 10.2735C15.6486 9.28999 16.7831 8.0918 17.4954 7.24783C17.9303 6.73261 17.9752 6.6435 17.9752 6.5C17.9752 6.3565 17.9303 6.26739 17.4954 5.75217C16.7831 4.9082 15.6486 3.71001 14.2477 2.72646C12.8427 1.74007 11.2133 1 9.5 1C7.78674 1 6.15732 1.74007 4.75232 2.72646ZM4.15383 1.91472C5.64902 0.865003 7.48743 0 9.5 0C11.5126 0 13.351 0.865003 14.8462 1.91472C16.3454 2.96727 17.5435 4.23623 18.2864 5.11641C18.3066 5.14026 18.3267 5.16397 18.3467 5.18758C18.6854 5.58699 19 5.95793 19 6.5C19 7.04206 18.6854 7.41301 18.3467 7.81242C18.3267 7.83603 18.3066 7.85974 18.2864 7.88359C17.5435 8.76377 16.3454 10.0327 14.8462 11.0853C13.351 12.135 11.5126 13 9.5 13C7.48743 13 5.64902 12.135 4.15383 11.0853C2.65459 10.0327 1.45648 8.76377 0.713555 7.88359C0.693423 7.85974 0.673316 7.83603 0.653292 7.81242C0.314575 7.41301 -3.05408e-08 7.04207 0 6.5C3.05409e-08 5.95793 0.314576 5.58699 0.653294 5.18758C0.673317 5.16397 0.693424 5.14026 0.713556 5.11641C1.45648 4.23623 2.65459 2.96727 4.15383 1.91472Z" fill="#3478F6"/>
</svg>